<?xml version="1.0" encoding="UTF-8" standalone="no"?><!-- Generator: Gravit.io --><svg xmlns="http://www.w3.org/2000/svg" xmlns:xlink="http://www.w3.org/1999/xlink" style="isolation:isolate" viewBox="69.492 66 219.013 219.032" width="219.013pt" height="219.032pt"><g><path d=" M 77.855 188.939 C 80.689 225.263 121.948 266.509 174.783 266.509 C 227.619 266.509 238.234 248.568 267.207 212.763 C 284.528 191.356 282.504 158.296 263.197 182.866 C 249.216 200.642 221.685 229.995 195.457 220.519 C 166.572 210.093 134.006 159.941 120.974 192.52 C 112.877 212.75 76.147 167.115 77.855 188.939 Z " fill="rgb(200,148,40)" fill-opacity="0.8"/><path d=" M 274.9 204.78 C 272.167 237.89 232.363 275.492 181.4 275.492 C 130.438 275.492 83.397 239.37 83.397 197.403 C 83.397 183.638 101.325 238.611 129.122 228.3 C 149.429 220.772 153.945 234.967 188.195 234.967 C 214.929 234.967 213.322 203.046 230.174 218.001 C 245.458 231.564 276.532 184.878 274.887 204.78 L 274.9 204.78 Z " fill="rgb(121,165,127)"/><path d=" M 123.052 192.893 C 118.318 199.884 114.346 205.314 148.654 190.793 C 148.654 190.793 132.225 172.834 123.052 192.893 Z " fill="rgb(251,248,248)" fill-opacity="0.95"/><defs><filter id="K2QnXJWG3Oer3OqMIs5k5KUxnzUXIfat" x="-200%" y="-200%" width="400%" height="400%" filterUnits="objectBoundingBox" color-interpolation-filters="sRGB"><feGaussianBlur xmlns="http://www.w3.org/2000/svg" in="SourceGraphic" stdDeviation="2.146804531419514"/><feOffset xmlns="http://www.w3.org/2000/svg" dx="0" dy="0" result="pf_100_offsetBlur"/><feFlood xmlns="http://www.w3.org/2000/svg" flood-color="#007F47" flood-opacity="0.65"/><feComposite xmlns="http://www.w3.org/2000/svg" in2="pf_100_offsetBlur" operator="in" result="pf_100_dropShadow"/><feBlend xmlns="http://www.w3.org/2000/svg" in="SourceGraphic" in2="pf_100_dropShadow" mode="normal"/></filter></defs><g filter="url(#K2QnXJWG3Oer3OqMIs5k5KUxnzUXIfat)"><path d=" M 276.919 205.87 C 281.913 189.762 282.687 173.338 279.925 157.765 L 277.087 164.528 C 278.577 177.667 277.456 191.321 273.298 204.734 C 257.179 256.722 201.77 285.905 149.782 269.787 C 97.793 253.669 68.61 198.26 84.728 146.272 C 100.846 94.285 156.252 65.114 208.241 81.232 C 225.195 86.488 239.71 95.942 251.035 108.077 L 256.58 108.564 C 244.453 94.485 228.386 83.504 209.365 77.607 C 155.382 60.87 97.836 91.179 81.099 145.16 C 64.363 199.142 94.66 256.685 148.654 273.424 C 202.648 290.164 260.183 259.852 276.919 205.87 Z " fill="rgb(255,145,77)" fill-opacity="0.9"/></g><ellipse vector-effect="non-scaling-stroke" cx="252.56218927544802" cy="139.0334762460031" rx="22.387729694239965" ry="22.178741056464325" fill="rgb(255,145,77)" fill-opacity="0.7"/></g></svg>