<?xml version="1.0" encoding="UTF-8" standalone="no"?><!-- Generator: Gravit.io --><svg xmlns="http://www.w3.org/2000/svg" xmlns:xlink="http://www.w3.org/1999/xlink" style="isolation:isolate" viewBox="0 0 357.996 453.015" width="357.996pt" height="453.015pt"><defs><clipPath id="_clipPath_xdJbV22bUaMVsZMm2iDVOKhxR7k7CrGP"><rect width="357.996" height="453.015"/></clipPath></defs><g clip-path="url(#_clipPath_xdJbV22bUaMVsZMm2iDVOKhxR7k7CrGP)"><g><path d=" M 77.855 188.939 C 80.689 225.263 121.948 266.509 174.783 266.509 C 227.619 266.509 238.234 248.568 267.207 212.763 C 284.528 191.356 282.504 158.296 263.197 182.866 C 249.216 200.642 221.685 229.995 195.457 220.519 C 166.572 210.093 134.006 159.941 120.974 192.52 C 112.877 212.75 76.147 167.115 77.855 188.939 Z " fill="rgb(200,148,40)" fill-opacity="0.8"/><path d=" M 274.9 204.78 C 272.167 237.89 232.363 275.492 181.4 275.492 C 130.438 275.492 83.397 239.37 83.397 197.403 C 83.397 183.638 101.325 238.611 129.122 228.3 C 149.429 220.772 153.945 234.967 188.195 234.967 C 214.929 234.967 213.322 203.046 230.174 218.001 C 245.458 231.564 276.532 184.878 274.887 204.78 L 274.9 204.78 Z " fill="rgb(121,165,127)"/><path d=" M 123.052 192.893 C 118.318 199.884 114.346 205.314 148.654 190.793 C 148.654 190.793 132.225 172.834 123.052 192.893 Z " fill="rgb(251,248,248)" fill-opacity="0.95"/><defs><filter id="4FMMI6XHDuwXActl1NXx3ESYyRjv4ahV" x="-200%" y="-200%" width="400%" height="400%" filterUnits="objectBoundingBox" color-interpolation-filters="sRGB"><feGaussianBlur xmlns="http://www.w3.org/2000/svg" in="SourceGraphic" stdDeviation="2.146804531419514"/><feOffset xmlns="http://www.w3.org/2000/svg" dx="0" dy="0" result="pf_100_offsetBlur"/><feFlood xmlns="http://www.w3.org/2000/svg" flood-color="#007F47" flood-opacity="0.65"/><feComposite xmlns="http://www.w3.org/2000/svg" in2="pf_100_offsetBlur" operator="in" result="pf_100_dropShadow"/><feBlend xmlns="http://www.w3.org/2000/svg" in="SourceGraphic" in2="pf_100_dropShadow" mode="normal"/></filter></defs><g filter="url(#4FMMI6XHDuwXActl1NXx3ESYyRjv4ahV)"><path d=" M 276.919 205.87 C 281.913 189.762 282.687 173.338 279.925 157.765 L 277.087 164.528 C 278.577 177.667 277.456 191.321 273.298 204.734 C 257.179 256.722 201.77 285.905 149.782 269.787 C 97.793 253.669 68.61 198.26 84.728 146.272 C 100.846 94.285 156.252 65.114 208.241 81.232 C 225.195 86.488 239.71 95.942 251.035 108.077 L 256.58 108.564 C 244.453 94.485 228.386 83.504 209.365 77.607 C 155.382 60.87 97.836 91.179 81.099 145.16 C 64.363 199.142 94.66 256.685 148.654 273.424 C 202.648 290.164 260.183 259.852 276.919 205.87 Z " fill="rgb(255,145,77)" fill-opacity="0.9"/></g><ellipse vector-effect="non-scaling-stroke" cx="252.56218927544802" cy="139.0334762460031" rx="22.387729694239965" ry="22.178741056464325" fill="rgb(255,145,77)" fill-opacity="0.7"/></g><defs><filter id="9ykX9XN05TP480tII1s2ILWSADdUoO27" x="-200%" y="-200%" width="400%" height="400%" filterUnits="objectBoundingBox" color-interpolation-filters="sRGB"><feGaussianBlur xmlns="http://www.w3.org/2000/svg" in="SourceGraphic" stdDeviation="1.2880827188517086"/><feOffset xmlns="http://www.w3.org/2000/svg" dx="0" dy="0" result="pf_100_offsetBlur"/><feFlood xmlns="http://www.w3.org/2000/svg" flood-color="#007F47" flood-opacity="0.65"/><feComposite xmlns="http://www.w3.org/2000/svg" in2="pf_100_offsetBlur" operator="in" result="pf_100_dropShadow"/><feBlend xmlns="http://www.w3.org/2000/svg" in="SourceGraphic" in2="pf_100_dropShadow" mode="normal"/></filter></defs><g filter="url(#9ykX9XN05TP480tII1s2ILWSADdUoO27)"><path d=" M 90.288 334.463 L 90.288 334.463 L 90.288 334.463 Q 90.288 330.258 91.278 326.203 L 91.278 326.203 L 91.278 326.203 Q 92.268 322.148 94.068 318.514 L 94.068 318.514 L 94.068 318.514 Q 95.868 314.879 98.358 311.845 L 98.358 311.845 L 98.358 311.845 Q 100.848 308.812 103.818 306.589 L 103.818 306.589 L 103.818 306.589 Q 106.788 304.366 110.148 303.135 L 110.148 303.135 L 110.148 303.135 Q 113.508 301.903 117.048 301.903 L 117.048 301.903 L 117.048 301.903 Q 121.188 301.903 123.498 303.643 L 123.498 303.643 L 123.498 303.643 Q 125.808 305.383 125.808 308.503 L 125.808 308.503 L 125.808 308.503 Q 125.808 309.703 125.478 310.963 L 125.478 310.963 L 125.478 310.963 Q 125.148 312.223 124.518 313.453 L 124.518 313.453 L 124.518 313.453 Q 123.888 314.683 123.048 315.823 L 123.048 315.823 L 123.048 315.823 Q 122.208 316.963 121.188 317.803 L 121.188 317.803 L 121.188 317.803 Q 119.628 317.563 118.488 316.393 L 118.488 316.393 L 118.488 316.393 Q 117.348 315.223 117.048 313.663 L 117.048 313.663 L 117.048 313.663 Q 119.148 311.923 120.378 310.033 L 120.378 310.033 L 120.378 310.033 Q 121.608 308.143 121.608 306.583 L 121.608 306.583 L 121.608 306.583 Q 121.608 303.943 118.308 303.943 L 118.308 303.943 L 118.308 303.943 Q 116.928 303.943 115.458 304.513 L 115.458 304.513 L 115.458 304.513 Q 113.988 305.083 112.488 306.103 L 112.488 306.103 L 112.488 306.103 Q 110.988 307.123 109.578 308.563 L 109.578 308.563 L 109.578 308.563 Q 108.168 310.003 106.968 311.743 L 106.968 311.743 L 106.968 311.743 Q 98.628 323.743 98.628 336.283 L 98.628 336.283 L 98.628 336.283 Q 98.628 340.723 100.008 343.423 L 100.008 343.423 L 100.008 343.423 Q 101.388 346.123 103.668 346.603 L 103.668 346.603 L 103.668 346.603 Q 106.248 346.003 110.208 343.303 L 110.208 343.303 L 110.208 343.303 Q 114.168 340.603 118.848 336.283 L 118.848 336.283 L 118.848 336.283 Q 119.448 336.883 119.568 337.543 L 119.568 337.543 L 119.568 337.543 Q 117.828 339.813 115.968 341.903 L 115.968 341.903 L 115.968 341.903 Q 114.108 343.994 112.278 345.726 L 112.278 345.726 L 112.278 345.726 Q 110.448 347.458 108.678 348.772 L 108.678 348.772 L 108.678 348.772 Q 106.908 350.086 105.408 350.803 L 105.408 350.803 L 105.408 350.803 Q 97.968 350.803 94.128 346.658 L 94.128 346.658 L 94.128 346.658 Q 90.288 342.513 90.288 334.463 Z  M 140.148 344.863 L 140.148 344.863 L 140.148 344.863 Q 139.008 343.903 138.618 342.463 L 138.618 342.463 L 138.618 342.463 Q 138.228 341.023 138.228 340.003 L 138.228 340.003 L 138.228 340.003 Q 138.228 338.743 138.528 337.843 L 138.528 337.843 L 138.528 337.843 Q 138.288 337.843 137.448 338.8 L 137.448 338.8 L 137.448 338.8 Q 136.608 339.757 135.618 341.073 L 135.618 341.073 L 135.618 341.073 Q 134.628 342.389 133.668 343.645 L 133.668 343.645 L 133.668 343.645 Q 132.708 344.901 132.228 345.499 L 132.228 345.499 L 132.228 345.499 Q 131.448 346.336 130.758 346.815 L 130.758 346.815 L 130.758 346.815 Q 130.068 347.293 129.648 347.353 L 129.648 347.353 L 129.648 347.353 Q 128.688 347.353 127.638 347.021 L 127.638 347.021 L 127.638 347.021 Q 126.588 346.689 125.658 346.085 L 125.658 346.085 L 125.658 346.085 Q 124.728 345.481 124.038 344.636 L 124.038 344.636 L 124.038 344.636 Q 123.348 343.79 123.108 342.703 L 123.108 342.703 L 123.108 342.703 Q 123.108 341.023 123.198 339.943 L 123.198 339.943 L 123.198 339.943 Q 123.288 338.863 123.588 337.603 L 123.588 337.603 L 123.588 337.603 Q 124.128 335.323 125.178 332.443 L 125.178 332.443 L 125.178 332.443 Q 126.228 329.563 127.608 326.773 L 127.608 326.773 L 127.608 326.773 Q 128.988 323.983 130.698 321.553 L 130.698 321.553 L 130.698 321.553 Q 132.408 319.123 134.328 317.743 L 134.328 317.743 L 134.328 317.743 Q 134.868 317.743 135.588 317.833 L 135.588 317.833 L 135.588 317.833 Q 136.308 317.923 137.058 318.163 L 137.058 318.163 L 137.058 318.163 Q 137.808 318.403 138.498 318.733 L 138.498 318.733 L 138.498 318.733 Q 139.188 319.063 139.668 319.603 L 139.668 319.603 L 139.668 319.603 Q 139.128 320.203 136.938 323.623 L 136.938 323.623 L 136.938 323.623 Q 134.748 327.043 132.048 333.463 L 132.048 333.463 L 132.048 333.463 Q 131.748 334.123 131.328 335.383 L 131.328 335.383 L 131.328 335.383 Q 130.908 336.643 130.488 338.023 L 130.488 338.023 L 130.488 338.023 Q 130.068 339.403 129.798 340.723 L 129.798 340.723 L 129.798 340.723 Q 129.528 342.043 129.528 342.823 L 129.528 342.823 L 129.528 342.823 Q 129.528 343.303 129.678 343.543 L 129.678 343.543 L 129.678 343.543 Q 129.828 343.783 129.948 343.903 L 129.948 343.903 L 129.948 343.903 Q 130.848 343.543 132.228 341.923 L 132.228 341.923 L 132.228 341.923 Q 133.608 340.303 136.068 336.943 L 136.068 336.943 L 136.068 336.943 Q 136.668 336.103 137.478 335.023 L 137.478 335.023 L 137.478 335.023 Q 138.288 333.943 139.128 332.713 L 139.128 332.713 L 139.128 332.713 Q 139.968 331.483 140.718 330.163 L 140.718 330.163 L 140.718 330.163 Q 141.468 328.843 141.948 327.523 L 141.948 327.523 L 141.948 327.523 Q 142.188 326.803 142.578 325.813 L 142.578 325.813 L 142.578 325.813 Q 142.968 324.823 143.538 323.743 L 143.538 323.743 L 143.538 323.743 Q 144.108 322.663 144.858 321.553 L 144.858 321.553 L 144.858 321.553 Q 145.608 320.443 146.628 319.483 L 146.628 319.483 L 146.628 319.483 Q 147.408 319.483 148.308 319.663 L 148.308 319.663 L 148.308 319.663 Q 149.208 319.843 150.018 320.113 L 150.018 320.113 L 150.018 320.113 Q 150.828 320.383 151.428 320.713 L 151.428 320.713 L 151.428 320.713 Q 152.028 321.043 152.328 321.403 L 152.328 321.403 L 152.328 321.403 Q 151.248 324.043 149.928 326.623 L 149.928 326.623 L 149.928 326.623 Q 148.608 329.203 147.468 331.693 L 147.468 331.693 L 147.468 331.693 Q 146.328 334.183 145.548 336.643 L 145.548 336.643 L 145.548 336.643 Q 144.768 339.103 144.768 341.443 L 144.768 341.443 L 144.768 341.443 Q 144.768 342.703 144.978 343.633 L 144.978 343.633 L 144.978 343.633 Q 145.188 344.563 145.428 345.193 L 145.428 345.193 L 145.428 345.193 Q 145.668 345.823 145.878 346.243 L 145.878 346.243 L 145.878 346.243 Q 146.088 346.663 146.088 346.963 L 146.088 346.963 L 146.088 346.963 Q 146.088 347.023 145.968 347.143 L 145.968 347.143 L 145.968 347.143 Q 145.908 347.203 145.848 347.203 L 145.848 347.203 L 145.848 347.203 Q 145.428 347.203 144.768 347.023 L 144.768 347.023 L 144.768 347.023 Q 144.108 346.843 143.298 346.513 L 143.298 346.513 L 143.298 346.513 Q 142.488 346.183 141.678 345.763 L 141.678 345.763 L 141.678 345.763 Q 140.868 345.343 140.148 344.863 Z  M 153.408 342.343 L 153.408 342.343 L 153.408 342.343 Q 153.408 339.703 154.668 334.933 L 154.668 334.933 L 154.668 334.933 Q 155.928 330.163 158.208 323.803 L 158.208 323.803 L 158.208 323.803 Q 161.928 313.663 165.198 306.913 L 165.198 306.913 L 165.198 306.913 Q 168.468 300.163 171.588 296.383 L 171.588 296.383 L 171.588 296.383 Q 172.308 296.503 173.358 296.983 L 173.358 296.983 L 173.358 296.983 Q 174.408 297.463 175.428 298.033 L 175.428 298.033 L 175.428 298.033 Q 176.448 298.603 177.258 299.203 L 177.258 299.203 L 177.258 299.203 Q 178.068 299.803 178.308 300.163 L 178.308 300.163 L 178.308 300.163 Q 173.628 305.683 170.088 312.043 L 170.088 312.043 L 170.088 312.043 Q 166.548 318.403 163.608 326.623 L 163.608 326.623 L 163.608 326.623 Q 161.088 333.703 159.768 339.373 L 159.768 339.373 L 159.768 339.373 Q 158.448 345.043 158.448 348.823 L 158.448 348.823 L 158.448 348.823 Q 158.448 349.843 158.448 350.083 L 158.448 350.083 L 158.448 350.083 Q 158.448 350.323 158.508 350.563 L 158.508 350.563 L 158.508 350.563 Q 157.668 350.443 157.068 350.143 L 157.068 350.143 L 157.068 350.143 Q 156.468 349.843 156.288 349.423 L 156.288 349.423 L 156.288 349.423 Q 156.168 349.123 155.628 348.553 L 155.628 348.553 L 155.628 348.553 Q 155.088 347.983 154.668 347.683 L 154.668 347.683 L 154.668 347.683 Q 154.128 347.323 153.768 345.793 L 153.768 345.793 L 153.768 345.793 Q 153.408 344.263 153.408 342.343 Z  M 174.588 323.203 L 171.168 323.203 L 171.168 323.203 Q 170.868 322.843 170.628 321.673 L 170.628 321.673 L 170.628 321.673 Q 170.388 320.503 170.388 319.663 L 170.388 319.663 L 170.388 319.663 Q 171.948 319.903 173.388 319.903 L 173.388 319.903 L 173.388 319.903 Q 174.828 319.903 176.028 319.903 L 176.028 319.903 L 176.028 319.903 Q 176.928 318.124 177.978 316.374 L 177.978 316.374 L 177.978 316.374 Q 179.028 314.624 180.018 313.17 L 180.018 313.17 L 180.018 313.17 Q 181.008 311.717 181.878 310.708 L 181.878 310.708 L 181.878 310.708 Q 182.748 309.7 183.228 309.403 L 183.228 309.403 L 183.228 309.403 Q 183.828 309.403 184.758 309.613 L 184.758 309.613 L 184.758 309.613 Q 185.688 309.823 186.648 310.153 L 186.648 310.153 L 186.648 310.153 Q 187.608 310.483 188.388 310.843 L 188.388 310.843 L 188.388 310.843 Q 189.168 311.203 189.468 311.563 L 189.468 311.563 L 189.468 311.563 Q 187.668 313.827 186.378 315.764 L 186.378 315.764 L 186.378 315.764 Q 185.088 317.701 183.588 320.203 L 183.588 320.203 L 183.588 320.203 Q 184.788 320.203 186.018 320.203 L 186.018 320.203 L 186.018 320.203 Q 187.248 320.203 188.508 320.023 L 188.508 320.023 L 188.508 320.023 Q 188.808 320.323 188.988 320.773 L 188.988 320.773 L 188.988 320.773 Q 189.168 321.223 189.168 321.703 L 189.168 321.703 L 189.168 321.703 Q 186.228 322.843 182.028 322.843 L 182.028 322.843 L 182.028 322.843 Q 180.528 325.731 179.358 328.588 L 179.358 328.588 L 179.358 328.588 Q 178.188 331.445 177.378 334.092 L 177.378 334.092 L 177.378 334.092 Q 176.568 336.739 176.118 339.085 L 176.118 339.085 L 176.118 339.085 Q 175.668 341.431 175.668 343.296 L 175.668 343.296 L 175.668 343.296 Q 175.668 345.942 177.648 346.243 L 177.648 346.243 L 177.648 346.243 Q 179.448 346.003 181.068 345.343 L 181.068 345.343 L 181.068 345.343 Q 182.688 344.683 183.948 343.663 L 183.948 343.663 L 183.948 343.663 Q 184.308 344.203 184.368 344.563 L 184.368 344.563 L 184.368 344.563 Q 184.008 345.099 183.138 345.815 L 183.138 345.815 L 183.138 345.815 Q 182.268 346.53 181.248 347.215 L 181.248 347.215 L 181.248 347.215 Q 180.228 347.9 179.268 348.377 L 179.268 348.377 L 179.268 348.377 Q 178.308 348.854 177.828 348.913 L 177.828 348.913 L 177.828 348.913 Q 176.328 348.913 174.828 348.312 L 174.828 348.312 L 174.828 348.312 Q 173.328 347.712 172.098 346.811 L 172.098 346.811 L 172.098 346.811 Q 170.868 345.91 170.088 344.798 L 170.088 344.798 L 170.088 344.798 Q 169.308 343.687 169.308 342.606 L 169.308 342.606 L 169.308 342.606 Q 169.308 341.164 169.698 338.972 L 169.698 338.972 L 169.698 338.972 Q 170.088 336.779 170.808 334.196 L 170.808 334.196 L 170.808 334.196 Q 171.528 331.613 172.488 328.79 L 172.488 328.79 L 172.488 328.79 Q 173.448 325.966 174.588 323.203 L 174.588 323.203 Z  M 205.068 344.863 L 205.068 344.863 L 205.068 344.863 Q 203.928 343.903 203.538 342.463 L 203.538 342.463 L 203.538 342.463 Q 203.148 341.023 203.148 340.003 L 203.148 340.003 L 203.148 340.003 Q 203.148 338.743 203.448 337.843 L 203.448 337.843 L 203.448 337.843 Q 203.208 337.843 202.368 338.8 L 202.368 338.8 L 202.368 338.8 Q 201.528 339.757 200.538 341.073 L 200.538 341.073 L 200.538 341.073 Q 199.548 342.389 198.588 343.645 L 198.588 343.645 L 198.588 343.645 Q 197.628 344.901 197.148 345.499 L 197.148 345.499 L 197.148 345.499 Q 196.368 346.336 195.678 346.815 L 195.678 346.815 L 195.678 346.815 Q 194.988 347.293 194.568 347.353 L 194.568 347.353 L 194.568 347.353 Q 193.608 347.353 192.558 347.021 L 192.558 347.021 L 192.558 347.021 Q 191.508 346.689 190.578 346.085 L 190.578 346.085 L 190.578 346.085 Q 189.648 345.481 188.958 344.636 L 188.958 344.636 L 188.958 344.636 Q 188.268 343.79 188.028 342.703 L 188.028 342.703 L 188.028 342.703 Q 188.028 341.023 188.118 339.943 L 188.118 339.943 L 188.118 339.943 Q 188.208 338.863 188.508 337.603 L 188.508 337.603 L 188.508 337.603 Q 189.048 335.323 190.098 332.443 L 190.098 332.443 L 190.098 332.443 Q 191.148 329.563 192.528 326.773 L 192.528 326.773 L 192.528 326.773 Q 193.908 323.983 195.618 321.553 L 195.618 321.553 L 195.618 321.553 Q 197.328 319.123 199.248 317.743 L 199.248 317.743 L 199.248 317.743 Q 199.788 317.743 200.508 317.833 L 200.508 317.833 L 200.508 317.833 Q 201.228 317.923 201.978 318.163 L 201.978 318.163 L 201.978 318.163 Q 202.728 318.403 203.418 318.733 L 203.418 318.733 L 203.418 318.733 Q 204.108 319.063 204.588 319.603 L 204.588 319.603 L 204.588 319.603 Q 204.048 320.203 201.858 323.623 L 201.858 323.623 L 201.858 323.623 Q 199.668 327.043 196.968 333.463 L 196.968 333.463 L 196.968 333.463 Q 196.668 334.123 196.248 335.383 L 196.248 335.383 L 196.248 335.383 Q 195.828 336.643 195.408 338.023 L 195.408 338.023 L 195.408 338.023 Q 194.988 339.403 194.718 340.723 L 194.718 340.723 L 194.718 340.723 Q 194.448 342.043 194.448 342.823 L 194.448 342.823 L 194.448 342.823 Q 194.448 343.303 194.598 343.543 L 194.598 343.543 L 194.598 343.543 Q 194.748 343.783 194.868 343.903 L 194.868 343.903 L 194.868 343.903 Q 195.768 343.543 197.148 341.923 L 197.148 341.923 L 197.148 341.923 Q 198.528 340.303 200.988 336.943 L 200.988 336.943 L 200.988 336.943 Q 201.588 336.103 202.398 335.023 L 202.398 335.023 L 202.398 335.023 Q 203.208 333.943 204.048 332.713 L 204.048 332.713 L 204.048 332.713 Q 204.888 331.483 205.638 330.163 L 205.638 330.163 L 205.638 330.163 Q 206.388 328.843 206.868 327.523 L 206.868 327.523 L 206.868 327.523 Q 207.108 326.803 207.498 325.813 L 207.498 325.813 L 207.498 325.813 Q 207.888 324.823 208.458 323.743 L 208.458 323.743 L 208.458 323.743 Q 209.028 322.663 209.778 321.553 L 209.778 321.553 L 209.778 321.553 Q 210.528 320.443 211.548 319.483 L 211.548 319.483 L 211.548 319.483 Q 212.328 319.483 213.228 319.663 L 213.228 319.663 L 213.228 319.663 Q 214.128 319.843 214.938 320.113 L 214.938 320.113 L 214.938 320.113 Q 215.748 320.383 216.348 320.713 L 216.348 320.713 L 216.348 320.713 Q 216.948 321.043 217.248 321.403 L 217.248 321.403 L 217.248 321.403 Q 216.168 324.043 214.848 326.623 L 214.848 326.623 L 214.848 326.623 Q 213.528 329.203 212.388 331.693 L 212.388 331.693 L 212.388 331.693 Q 211.248 334.183 210.468 336.643 L 210.468 336.643 L 210.468 336.643 Q 209.688 339.103 209.688 341.443 L 209.688 341.443 L 209.688 341.443 Q 209.688 342.703 209.898 343.633 L 209.898 343.633 L 209.898 343.633 Q 210.108 344.563 210.348 345.193 L 210.348 345.193 L 210.348 345.193 Q 210.588 345.823 210.798 346.243 L 210.798 346.243 L 210.798 346.243 Q 211.008 346.663 211.008 346.963 L 211.008 346.963 L 211.008 346.963 Q 211.008 347.023 210.888 347.143 L 210.888 347.143 L 210.888 347.143 Q 210.828 347.203 210.768 347.203 L 210.768 347.203 L 210.768 347.203 Q 210.348 347.203 209.688 347.023 L 209.688 347.023 L 209.688 347.023 Q 209.028 346.843 208.218 346.513 L 208.218 346.513 L 208.218 346.513 Q 207.408 346.183 206.598 345.763 L 206.598 345.763 L 206.598 345.763 Q 205.788 345.343 205.068 344.863 Z  M 216.948 344.983 L 216.948 344.983 L 216.948 344.983 Q 217.248 343.243 217.998 340.393 L 217.998 340.393 L 217.998 340.393 Q 218.748 337.543 219.768 334.333 L 219.768 334.333 L 219.768 334.333 Q 220.788 331.123 221.928 327.883 L 221.928 327.883 L 221.928 327.883 Q 223.068 324.643 224.148 322.063 L 224.148 322.063 L 224.148 322.063 Q 224.928 320.203 225.528 319.153 L 225.528 319.153 L 225.528 319.153 Q 226.128 318.103 226.848 317.383 L 226.848 317.383 L 226.848 317.383 Q 227.688 317.503 228.588 317.803 L 228.588 317.803 L 228.588 317.803 Q 229.488 318.103 230.328 318.523 L 230.328 318.523 L 230.328 318.523 Q 231.168 318.943 231.828 319.393 L 231.828 319.393 L 231.828 319.393 Q 232.488 319.843 232.848 320.263 L 232.848 320.263 L 232.848 320.263 Q 231.228 322.183 229.998 324.643 L 229.998 324.643 L 229.998 324.643 Q 228.768 327.103 227.508 330.943 L 227.508 330.943 L 227.508 330.943 Q 230.748 328.063 233.238 325.423 L 233.238 325.423 L 233.238 325.423 Q 235.728 322.783 237.888 319.543 L 237.888 319.543 L 237.888 319.543 Q 238.248 319.243 239.148 319.243 L 239.148 319.243 L 239.148 319.243 Q 239.988 319.243 240.768 319.513 L 240.768 319.513 L 240.768 319.513 Q 241.548 319.783 241.848 320.263 L 241.848 320.263 L 241.848 320.263 Q 240.768 323.143 240.768 325.963 L 240.768 325.963 L 240.768 325.963 Q 240.768 328.603 241.548 329.923 L 241.548 329.923 L 241.548 329.923 Q 241.488 330.283 240.738 331.303 L 240.738 331.303 L 240.738 331.303 Q 239.988 332.323 239.088 333.223 L 239.088 333.223 L 239.088 333.223 Q 237.468 332.383 236.208 330.913 L 236.208 330.913 L 236.208 330.913 Q 234.948 329.443 234.348 327.703 L 234.348 327.703 L 234.348 327.703 Q 231.528 329.683 229.548 331.573 L 229.548 331.573 L 229.548 331.573 Q 227.568 333.463 226.158 335.773 L 226.158 335.773 L 226.158 335.773 Q 224.748 338.083 223.758 341.083 L 223.758 341.083 L 223.758 341.083 Q 222.768 344.083 221.868 348.223 L 221.868 348.223 L 221.868 348.223 Q 221.328 348.163 220.578 347.833 L 220.578 347.833 L 220.578 347.833 Q 219.828 347.503 219.078 347.023 L 219.078 347.023 L 219.078 347.023 Q 218.328 346.543 217.728 346.003 L 217.728 346.003 L 217.728 346.003 Q 217.128 345.463 216.948 344.983 Z  M 263.268 321.943 L 263.268 321.943 L 263.268 321.943 Q 263.868 321.943 264.678 322.153 L 264.678 322.153 L 264.678 322.153 Q 265.488 322.363 266.148 322.693 L 266.148 322.693 L 266.148 322.693 Q 266.808 323.023 267.258 323.383 L 267.258 323.383 L 267.258 323.383 Q 267.708 323.743 267.708 324.043 L 267.708 324.043 L 267.708 324.043 Q 266.508 326.563 265.488 329.113 L 265.488 329.113 L 265.488 329.113 Q 264.468 331.663 263.748 334.003 L 263.748 334.003 L 263.748 334.003 Q 263.028 336.343 262.638 338.383 L 262.638 338.383 L 262.638 338.383 Q 262.248 340.423 262.248 341.923 L 262.248 341.923 L 262.248 341.923 Q 262.248 343.603 262.608 344.713 L 262.608 344.713 L 262.608 344.713 Q 262.968 345.823 263.808 346.303 L 263.808 346.303 L 263.808 346.303 Q 263.088 346.783 261.948 347.083 L 261.948 347.083 L 261.948 347.083 Q 260.808 347.383 259.908 347.383 L 259.908 347.383 L 259.908 347.383 Q 256.668 347.383 256.668 342.943 L 256.668 342.943 L 256.668 342.943 Q 256.668 339.523 258.948 333.583 L 258.948 333.583 L 258.948 333.583 Q 257.748 336.331 256.188 338.751 L 256.188 338.751 L 256.188 338.751 Q 254.628 341.17 253.008 343.022 L 253.008 343.022 L 253.008 343.022 Q 251.388 344.874 249.738 346.039 L 249.738 346.039 L 249.738 346.039 Q 248.088 347.204 246.708 347.443 L 246.708 347.443 L 246.708 347.443 Q 244.488 347.443 243.108 345.425 L 243.108 345.425 L 243.108 345.425 Q 241.728 343.406 241.728 340.273 L 241.728 340.273 L 241.728 340.273 Q 241.728 336.899 243.168 333.163 L 243.168 333.163 L 243.168 333.163 Q 244.608 329.428 246.858 326.234 L 246.858 326.234 L 246.858 326.234 Q 249.108 323.041 251.748 320.902 L 251.748 320.902 L 251.748 320.902 Q 254.388 318.763 256.848 318.763 L 256.848 318.763 L 256.848 318.763 Q 257.448 318.943 258.198 319.481 L 258.198 319.481 L 258.198 319.481 Q 258.948 320.02 259.638 320.738 L 259.638 320.738 L 259.638 320.738 Q 260.328 321.457 260.808 322.205 L 260.808 322.205 L 260.808 322.205 Q 261.288 322.953 261.348 323.492 L 261.348 323.492 L 261.348 323.492 Q 258.948 323.851 256.398 325.826 L 256.398 325.826 L 256.398 325.826 Q 253.848 327.802 251.778 330.585 L 251.778 330.585 L 251.778 330.585 Q 249.708 333.368 248.388 336.541 L 248.388 336.541 L 248.388 336.541 Q 247.068 339.713 247.068 342.467 L 247.068 342.467 L 247.068 342.467 Q 247.068 343.604 247.908 343.903 L 247.908 343.903 L 247.908 343.903 Q 249.648 343.543 251.928 340.933 L 251.928 340.933 L 251.928 340.933 Q 254.208 338.323 257.448 332.863 L 257.448 332.863 L 257.448 332.863 Q 258.048 331.783 258.798 330.463 L 258.798 330.463 L 258.798 330.463 Q 259.548 329.143 260.328 327.703 L 260.328 327.703 L 260.328 327.703 Q 261.108 326.263 261.858 324.793 L 261.858 324.793 L 261.858 324.793 Q 262.608 323.323 263.268 321.943 Z " fill="rgb(255,145,77)"/></g><defs><filter id="O1EK7ISVLOskgMDMNeYHBCbSZDAfauoi" x="-200%" y="-200%" width="400%" height="400%" filterUnits="objectBoundingBox" color-interpolation-filters="sRGB"><feGaussianBlur xmlns="http://www.w3.org/2000/svg" in="SourceGraphic" stdDeviation="2.146804531419514"/><feOffset xmlns="http://www.w3.org/2000/svg" dx="0" dy="0" result="pf_100_offsetBlur"/><feFlood xmlns="http://www.w3.org/2000/svg" flood-color="#007F47" flood-opacity="0.65"/><feComposite xmlns="http://www.w3.org/2000/svg" in2="pf_100_offsetBlur" operator="in" result="pf_100_dropShadow"/><feBlend xmlns="http://www.w3.org/2000/svg" in="SourceGraphic" in2="pf_100_dropShadow" mode="normal"/></filter></defs><g filter="url(#O1EK7ISVLOskgMDMNeYHBCbSZDAfauoi)"><path d=" M 232.971 363.979 L 233.295 364.051 L 228.921 374.923 L 228.921 374.923 Q 228.849 375.103 228.723 375.193 L 228.723 375.193 L 228.723 375.193 Q 228.597 375.283 228.435 375.283 L 228.435 375.283 L 228.435 375.283 Q 228.183 375.283 228.057 375.148 L 228.057 375.148 L 228.057 375.148 Q 227.931 375.013 227.913 374.815 L 227.913 374.815 L 227.913 374.815 Q 227.895 374.725 227.931 374.599 L 227.931 374.599 L 232.683 362.971 L 232.683 362.971 Q 232.773 362.773 232.908 362.692 L 232.908 362.692 L 232.908 362.692 Q 233.043 362.611 233.223 362.611 L 233.223 362.611 L 233.223 362.611 Q 233.403 362.611 233.538 362.71 L 233.538 362.71 L 233.538 362.71 Q 233.673 362.809 233.745 362.971 L 233.745 362.971 L 238.479 374.545 L 238.479 374.545 Q 238.515 374.653 238.515 374.761 L 238.515 374.761 L 238.515 374.761 Q 238.515 375.013 238.353 375.148 L 238.353 375.148 L 238.353 375.148 Q 238.191 375.283 237.975 375.283 L 237.975 375.283 L 237.975 375.283 Q 237.795 375.283 237.66 375.184 L 237.66 375.184 L 237.66 375.184 Q 237.525 375.085 237.453 374.923 L 237.453 374.923 L 232.971 363.979 Z  M 236.211 371.629 L 229.965 371.629 L 230.415 370.567 L 235.995 370.567 L 236.211 371.629 Z  M 244.797 365.851 L 244.797 365.851 L 244.797 365.851 Q 245.985 365.851 246.696 366.328 L 246.696 366.328 L 246.696 366.328 Q 247.407 366.805 247.722 367.624 L 247.722 367.624 L 247.722 367.624 Q 248.037 368.443 248.037 369.433 L 248.037 369.433 L 248.037 374.725 L 248.037 374.725 Q 248.037 374.941 247.875 375.103 L 247.875 375.103 L 247.875 375.103 Q 247.713 375.265 247.497 375.265 L 247.497 375.265 L 247.497 375.265 Q 247.245 375.265 247.101 375.103 L 247.101 375.103 L 247.101 375.103 Q 246.957 374.941 246.957 374.725 L 246.957 374.725 L 246.957 369.487 L 246.957 369.487 Q 246.957 368.767 246.723 368.173 L 246.723 368.173 L 246.723 368.173 Q 246.489 367.579 245.958 367.219 L 245.958 367.219 L 245.958 367.219 Q 245.427 366.859 244.563 366.859 L 244.563 366.859 L 244.563 366.859 Q 243.789 366.859 243.096 367.219 L 243.096 367.219 L 243.096 367.219 Q 242.403 367.579 241.971 368.173 L 241.971 368.173 L 241.971 368.173 Q 241.539 368.767 241.539 369.487 L 241.539 369.487 L 241.539 374.725 L 241.539 374.725 Q 241.539 374.941 241.377 375.103 L 241.377 375.103 L 241.377 375.103 Q 241.215 375.265 240.999 375.265 L 240.999 375.265 L 240.999 375.265 Q 240.747 375.265 240.603 375.103 L 240.603 375.103 L 240.603 375.103 Q 240.459 374.941 240.459 374.725 L 240.459 374.725 L 240.459 366.661 L 240.459 366.661 Q 240.459 366.445 240.612 366.283 L 240.612 366.283 L 240.612 366.283 Q 240.765 366.121 240.999 366.121 L 240.999 366.121 L 240.999 366.121 Q 241.233 366.121 241.386 366.283 L 241.386 366.283 L 241.386 366.283 Q 241.539 366.445 241.539 366.661 L 241.539 366.661 L 241.539 368.173 L 241.125 368.821 L 241.125 368.821 Q 241.161 368.245 241.494 367.714 L 241.494 367.714 L 241.494 367.714 Q 241.827 367.183 242.349 366.76 L 242.349 366.76 L 242.349 366.76 Q 242.871 366.337 243.51 366.094 L 243.51 366.094 L 243.51 366.094 Q 244.149 365.851 244.797 365.851 Z  M 258.333 361.945 L 258.333 361.945 L 258.333 361.945 Q 258.567 361.945 258.72 362.098 L 258.72 362.098 L 258.72 362.098 Q 258.873 362.251 258.873 362.485 L 258.873 362.485 L 258.873 374.725 L 258.873 374.725 Q 258.873 374.941 258.711 375.103 L 258.711 375.103 L 258.711 375.103 Q 258.549 375.265 258.333 375.265 L 258.333 375.265 L 258.333 375.265 Q 258.081 375.265 257.937 375.103 L 257.937 375.103 L 257.937 375.103 Q 257.793 374.941 257.793 374.725 L 257.793 374.725 L 257.793 372.583 L 258.099 372.331 L 258.099 372.331 Q 258.099 372.835 257.829 373.384 L 257.829 373.384 L 257.829 373.384 Q 257.559 373.933 257.064 374.401 L 257.064 374.401 L 257.064 374.401 Q 256.569 374.869 255.912 375.157 L 255.912 375.157 L 255.912 375.157 Q 255.255 375.445 254.481 375.445 L 254.481 375.445 L 254.481 375.445 Q 253.293 375.445 252.33 374.815 L 252.33 374.815 L 252.33 374.815 Q 251.367 374.185 250.809 373.105 L 250.809 373.105 L 250.809 373.105 Q 250.251 372.025 250.251 370.639 L 250.251 370.639 L 250.251 370.639 Q 250.251 369.271 250.809 368.182 L 250.809 368.182 L 250.809 368.182 Q 251.367 367.093 252.321 366.472 L 252.321 366.472 L 252.321 366.472 Q 253.275 365.851 254.463 365.851 L 254.463 365.851 L 254.463 365.851 Q 255.219 365.851 255.885 366.121 L 255.885 366.121 L 255.885 366.121 Q 256.551 366.391 257.064 366.859 L 257.064 366.859 L 257.064 366.859 Q 257.577 367.327 257.874 367.93 L 257.874 367.93 L 257.874 367.93 Q 258.171 368.533 258.171 369.181 L 258.171 369.181 L 257.793 368.911 L 257.793 362.485 L 257.793 362.485 Q 257.793 362.269 257.937 362.107 L 257.937 362.107 L 257.937 362.107 Q 258.081 361.945 258.333 361.945 Z  M 254.589 374.437 L 254.589 374.437 L 254.589 374.437 Q 255.543 374.437 256.281 373.942 L 256.281 373.942 L 256.281 373.942 Q 257.019 373.447 257.442 372.592 L 257.442 372.592 L 257.442 372.592 Q 257.865 371.737 257.865 370.639 L 257.865 370.639 L 257.865 370.639 Q 257.865 369.559 257.442 368.704 L 257.442 368.704 L 257.442 368.704 Q 257.019 367.849 256.281 367.354 L 256.281 367.354 L 256.281 367.354 Q 255.543 366.859 254.589 366.859 L 254.589 366.859 L 254.589 366.859 Q 253.653 366.859 252.906 367.354 L 252.906 367.354 L 252.906 367.354 Q 252.159 367.849 251.736 368.704 L 251.736 368.704 L 251.736 368.704 Q 251.313 369.559 251.313 370.639 L 251.313 370.639 L 251.313 370.639 Q 251.313 371.719 251.736 372.583 L 251.736 372.583 L 251.736 372.583 Q 252.159 373.447 252.906 373.942 L 252.906 373.942 L 252.906 373.942 Q 253.653 374.437 254.589 374.437 Z  M 265.785 375.445 L 265.785 375.445 L 265.785 375.445 Q 264.399 375.445 263.337 374.851 L 263.337 374.851 L 263.337 374.851 Q 262.275 374.257 261.681 373.195 L 261.681 373.195 L 261.681 373.195 Q 261.087 372.133 261.087 370.711 L 261.087 370.711 L 261.087 370.711 Q 261.087 369.181 261.69 368.101 L 261.69 368.101 L 261.69 368.101 Q 262.293 367.021 263.256 366.436 L 263.256 366.436 L 263.256 366.436 Q 264.219 365.851 265.299 365.851 L 265.299 365.851 L 265.299 365.851 Q 266.091 365.851 266.838 366.13 L 266.838 366.13 L 266.838 366.13 Q 267.585 366.409 268.161 366.958 L 268.161 366.958 L 268.161 366.958 Q 268.737 367.507 269.097 368.299 L 269.097 368.299 L 269.097 368.299 Q 269.457 369.091 269.475 370.135 L 269.475 370.135 L 269.475 370.135 Q 269.475 370.351 269.313 370.504 L 269.313 370.504 L 269.313 370.504 Q 269.151 370.657 268.935 370.657 L 268.935 370.657 L 261.717 370.657 L 261.501 369.685 L 268.593 369.685 L 268.359 369.901 L 268.359 369.541 L 268.359 369.541 Q 268.269 368.695 267.801 368.101 L 267.801 368.101 L 267.801 368.101 Q 267.333 367.507 266.676 367.201 L 266.676 367.201 L 266.676 367.201 Q 266.019 366.895 265.299 366.895 L 265.299 366.895 L 265.299 366.895 Q 264.759 366.895 264.192 367.111 L 264.192 367.111 L 264.192 367.111 Q 263.625 367.327 263.166 367.786 L 263.166 367.786 L 263.166 367.786 Q 262.707 368.245 262.419 368.956 L 262.419 368.956 L 262.419 368.956 Q 262.131 369.667 262.131 370.639 L 262.131 370.639 L 262.131 370.639 Q 262.131 371.701 262.563 372.565 L 262.563 372.565 L 262.563 372.565 Q 262.995 373.429 263.805 373.933 L 263.805 373.933 L 263.805 373.933 Q 264.615 374.437 265.767 374.437 L 265.767 374.437 L 265.767 374.437 Q 266.379 374.437 266.883 374.257 L 266.883 374.257 L 266.883 374.257 Q 267.387 374.077 267.774 373.78 L 267.774 373.78 L 267.774 373.78 Q 268.161 373.483 268.413 373.159 L 268.413 373.159 L 268.413 373.159 Q 268.611 372.997 268.791 372.997 L 268.791 372.997 L 268.791 372.997 Q 268.989 372.997 269.124 373.141 L 269.124 373.141 L 269.124 373.141 Q 269.259 373.285 269.259 373.465 L 269.259 373.465 L 269.259 373.465 Q 269.259 373.681 269.079 373.843 L 269.079 373.843 L 269.079 373.843 Q 268.539 374.491 267.675 374.968 L 267.675 374.968 L 267.675 374.968 Q 266.811 375.445 265.785 375.445 Z  M 271.185 373.807 L 271.185 373.807 L 271.185 373.807 Q 271.041 373.591 271.05 373.384 L 271.05 373.384 L 271.05 373.384 Q 271.059 373.177 271.275 373.051 L 271.275 373.051 L 271.275 373.051 Q 271.419 372.925 271.608 372.943 L 271.608 372.943 L 271.608 372.943 Q 271.797 372.961 271.959 373.123 L 271.959 373.123 L 271.959 373.123 Q 272.445 373.753 273.138 374.14 L 273.138 374.14 L 273.138 374.14 Q 273.831 374.527 274.785 374.527 L 274.785 374.527 L 274.785 374.527 Q 275.289 374.527 275.784 374.356 L 275.784 374.356 L 275.784 374.356 Q 276.279 374.185 276.603 373.834 L 276.603 373.834 L 276.603 373.834 Q 276.927 373.483 276.927 372.943 L 276.927 372.943 L 276.927 372.943 Q 276.927 372.385 276.603 372.043 L 276.603 372.043 L 276.603 372.043 Q 276.279 371.701 275.766 371.503 L 275.766 371.503 L 275.766 371.503 Q 275.253 371.305 274.677 371.161 L 274.677 371.161 L 274.677 371.161 Q 274.065 370.999 273.489 370.792 L 273.489 370.792 L 273.489 370.792 Q 272.913 370.585 272.472 370.27 L 272.472 370.27 L 272.472 370.27 Q 272.031 369.955 271.761 369.505 L 271.761 369.505 L 271.761 369.505 Q 271.491 369.055 271.491 368.407 L 271.491 368.407 L 271.491 368.407 Q 271.491 367.651 271.905 367.075 L 271.905 367.075 L 271.905 367.075 Q 272.319 366.499 273.03 366.175 L 273.03 366.175 L 273.03 366.175 Q 273.741 365.851 274.641 365.851 L 274.641 365.851 L 274.641 365.851 Q 275.091 365.851 275.613 365.968 L 275.613 365.968 L 275.613 365.968 Q 276.135 366.085 276.639 366.355 L 276.639 366.355 L 276.639 366.355 Q 277.143 366.625 277.539 367.093 L 277.539 367.093 L 277.539 367.093 Q 277.701 367.255 277.701 367.462 L 277.701 367.462 L 277.701 367.462 Q 277.701 367.669 277.521 367.831 L 277.521 367.831 L 277.521 367.831 Q 277.377 367.939 277.188 367.939 L 277.188 367.939 L 277.188 367.939 Q 276.999 367.939 276.873 367.795 L 276.873 367.795 L 276.873 367.795 Q 276.441 367.309 275.847 367.057 L 275.847 367.057 L 275.847 367.057 Q 275.253 366.805 274.569 366.805 L 274.569 366.805 L 274.569 366.805 Q 274.047 366.805 273.588 366.976 L 273.588 366.976 L 273.588 366.976 Q 273.129 367.147 272.823 367.489 L 272.823 367.489 L 272.823 367.489 Q 272.517 367.831 272.517 368.389 L 272.517 368.389 L 272.517 368.389 Q 272.553 368.911 272.886 369.235 L 272.886 369.235 L 272.886 369.235 Q 273.219 369.559 273.768 369.775 L 273.768 369.775 L 273.768 369.775 Q 274.317 369.991 275.001 370.171 L 275.001 370.171 L 275.001 370.171 Q 275.577 370.315 276.108 370.513 L 276.108 370.513 L 276.108 370.513 Q 276.639 370.711 277.044 371.008 L 277.044 371.008 L 277.044 371.008 Q 277.449 371.305 277.692 371.755 L 277.692 371.755 L 277.692 371.755 Q 277.935 372.205 277.935 372.889 L 277.935 372.889 L 277.935 372.889 Q 277.935 373.681 277.494 374.257 L 277.494 374.257 L 277.494 374.257 Q 277.053 374.833 276.315 375.139 L 276.315 375.139 L 276.315 375.139 Q 275.577 375.445 274.677 375.445 L 274.677 375.445 L 274.677 375.445 Q 273.705 375.445 272.796 375.067 L 272.796 375.067 L 272.796 375.067 Q 271.887 374.689 271.185 373.807 Z  M 201.975 362.485 L 201.975 374.725 L 201.975 374.725 Q 201.975 374.941 201.813 375.103 L 201.813 375.103 L 201.813 375.103 Q 201.651 375.265 201.435 375.265 L 201.435 375.265 L 201.435 375.265 Q 201.201 375.265 201.048 375.103 L 201.048 375.103 L 201.048 375.103 Q 200.895 374.941 200.895 374.725 L 200.895 374.725 L 200.895 362.485 L 200.895 362.485 Q 200.895 362.269 201.057 362.107 L 201.057 362.107 L 201.057 362.107 Q 201.219 361.945 201.435 361.945 L 201.435 361.945 L 201.435 361.945 Q 201.669 361.945 201.822 362.107 L 201.822 362.107 L 201.822 362.107 Q 201.975 362.269 201.975 362.485 L 201.975 362.485 Z  M 213.243 370.657 L 213.243 370.657 L 213.243 370.657 Q 213.243 372.025 212.64 373.114 L 212.64 373.114 L 212.64 373.114 Q 212.037 374.203 211.011 374.824 L 211.011 374.824 L 211.011 374.824 Q 209.985 375.445 208.689 375.445 L 208.689 375.445 L 208.689 375.445 Q 207.411 375.445 206.376 374.824 L 206.376 374.824 L 206.376 374.824 Q 205.341 374.203 204.738 373.114 L 204.738 373.114 L 204.738 373.114 Q 204.135 372.025 204.135 370.657 L 204.135 370.657 L 204.135 370.657 Q 204.135 369.271 204.738 368.191 L 204.738 368.191 L 204.738 368.191 Q 205.341 367.111 206.376 366.481 L 206.376 366.481 L 206.376 366.481 Q 207.411 365.851 208.689 365.851 L 208.689 365.851 L 208.689 365.851 Q 209.985 365.851 211.011 366.481 L 211.011 366.481 L 211.011 366.481 Q 212.037 367.111 212.64 368.191 L 212.64 368.191 L 212.64 368.191 Q 213.243 369.271 213.243 370.657 Z  M 212.163 370.657 L 212.163 370.657 L 212.163 370.657 Q 212.163 369.559 211.713 368.704 L 211.713 368.704 L 211.713 368.704 Q 211.263 367.849 210.48 367.354 L 210.48 367.354 L 210.48 367.354 Q 209.697 366.859 208.689 366.859 L 208.689 366.859 L 208.689 366.859 Q 207.699 366.859 206.916 367.354 L 206.916 367.354 L 206.916 367.354 Q 206.133 367.849 205.674 368.704 L 205.674 368.704 L 205.674 368.704 Q 205.215 369.559 205.215 370.657 L 205.215 370.657 L 205.215 370.657 Q 205.215 371.755 205.674 372.601 L 205.674 372.601 L 205.674 372.601 Q 206.133 373.447 206.916 373.942 L 206.916 373.942 L 206.916 373.942 Q 207.699 374.437 208.689 374.437 L 208.689 374.437 L 208.689 374.437 Q 209.697 374.437 210.48 373.942 L 210.48 373.942 L 210.48 373.942 Q 211.263 373.447 211.713 372.601 L 211.713 372.601 L 211.713 372.601 Q 212.163 371.755 212.163 370.657 Z  M 214.935 373.807 L 214.935 373.807 L 214.935 373.807 Q 214.791 373.591 214.8 373.384 L 214.8 373.384 L 214.8 373.384 Q 214.809 373.177 215.025 373.051 L 215.025 373.051 L 215.025 373.051 Q 215.169 372.925 215.358 372.943 L 215.358 372.943 L 215.358 372.943 Q 215.547 372.961 215.709 373.123 L 215.709 373.123 L 215.709 373.123 Q 216.195 373.753 216.888 374.14 L 216.888 374.14 L 216.888 374.14 Q 217.581 374.527 218.535 374.527 L 218.535 374.527 L 218.535 374.527 Q 219.039 374.527 219.534 374.356 L 219.534 374.356 L 219.534 374.356 Q 220.029 374.185 220.353 373.834 L 220.353 373.834 L 220.353 373.834 Q 220.677 373.483 220.677 372.943 L 220.677 372.943 L 220.677 372.943 Q 220.677 372.385 220.353 372.043 L 220.353 372.043 L 220.353 372.043 Q 220.029 371.701 219.516 371.503 L 219.516 371.503 L 219.516 371.503 Q 219.003 371.305 218.427 371.161 L 218.427 371.161 L 218.427 371.161 Q 217.815 370.999 217.239 370.792 L 217.239 370.792 L 217.239 370.792 Q 216.663 370.585 216.222 370.27 L 216.222 370.27 L 216.222 370.27 Q 215.781 369.955 215.511 369.505 L 215.511 369.505 L 215.511 369.505 Q 215.241 369.055 215.241 368.407 L 215.241 368.407 L 215.241 368.407 Q 215.241 367.651 215.655 367.075 L 215.655 367.075 L 215.655 367.075 Q 216.069 366.499 216.78 366.175 L 216.78 366.175 L 216.78 366.175 Q 217.491 365.851 218.391 365.851 L 218.391 365.851 L 218.391 365.851 Q 218.841 365.851 219.363 365.968 L 219.363 365.968 L 219.363 365.968 Q 219.885 366.085 220.389 366.355 L 220.389 366.355 L 220.389 366.355 Q 220.893 366.625 221.289 367.093 L 221.289 367.093 L 221.289 367.093 Q 221.451 367.255 221.451 367.462 L 221.451 367.462 L 221.451 367.462 Q 221.451 367.669 221.271 367.831 L 221.271 367.831 L 221.271 367.831 Q 221.127 367.939 220.938 367.939 L 220.938 367.939 L 220.938 367.939 Q 220.749 367.939 220.623 367.795 L 220.623 367.795 L 220.623 367.795 Q 220.191 367.309 219.597 367.057 L 219.597 367.057 L 219.597 367.057 Q 219.003 366.805 218.319 366.805 L 218.319 366.805 L 218.319 366.805 Q 217.797 366.805 217.338 366.976 L 217.338 366.976 L 217.338 366.976 Q 216.879 367.147 216.573 367.489 L 216.573 367.489 L 216.573 367.489 Q 216.267 367.831 216.267 368.389 L 216.267 368.389 L 216.267 368.389 Q 216.303 368.911 216.636 369.235 L 216.636 369.235 L 216.636 369.235 Q 216.969 369.559 217.518 369.775 L 217.518 369.775 L 217.518 369.775 Q 218.067 369.991 218.751 370.171 L 218.751 370.171 L 218.751 370.171 Q 219.327 370.315 219.858 370.513 L 219.858 370.513 L 219.858 370.513 Q 220.389 370.711 220.794 371.008 L 220.794 371.008 L 220.794 371.008 Q 221.199 371.305 221.442 371.755 L 221.442 371.755 L 221.442 371.755 Q 221.685 372.205 221.685 372.889 L 221.685 372.889 L 221.685 372.889 Q 221.685 373.681 221.244 374.257 L 221.244 374.257 L 221.244 374.257 Q 220.803 374.833 220.065 375.139 L 220.065 375.139 L 220.065 375.139 Q 219.327 375.445 218.427 375.445 L 218.427 375.445 L 218.427 375.445 Q 217.455 375.445 216.546 375.067 L 216.546 375.067 L 216.546 375.067 Q 215.637 374.689 214.935 373.807 Z  M 182.499 361.945 L 182.499 361.945 L 182.499 361.945 Q 182.733 361.945 182.886 362.098 L 182.886 362.098 L 182.886 362.098 Q 183.039 362.251 183.039 362.485 L 183.039 362.485 L 183.039 374.725 L 183.039 374.725 Q 183.039 374.941 182.877 375.103 L 182.877 375.103 L 182.877 375.103 Q 182.715 375.265 182.499 375.265 L 182.499 375.265 L 182.499 375.265 Q 182.247 375.265 182.103 375.103 L 182.103 375.103 L 182.103 375.103 Q 181.959 374.941 181.959 374.725 L 181.959 374.725 L 181.959 372.583 L 182.265 372.331 L 182.265 372.331 Q 182.265 372.835 181.995 373.384 L 181.995 373.384 L 181.995 373.384 Q 181.725 373.933 181.23 374.401 L 181.23 374.401 L 181.23 374.401 Q 180.735 374.869 180.078 375.157 L 180.078 375.157 L 180.078 375.157 Q 179.421 375.445 178.647 375.445 L 178.647 375.445 L 178.647 375.445 Q 177.459 375.445 176.496 374.815 L 176.496 374.815 L 176.496 374.815 Q 175.533 374.185 174.975 373.105 L 174.975 373.105 L 174.975 373.105 Q 174.417 372.025 174.417 370.639 L 174.417 370.639 L 174.417 370.639 Q 174.417 369.271 174.975 368.182 L 174.975 368.182 L 174.975 368.182 Q 175.533 367.093 176.487 366.472 L 176.487 366.472 L 176.487 366.472 Q 177.441 365.851 178.629 365.851 L 178.629 365.851 L 178.629 365.851 Q 179.385 365.851 180.051 366.121 L 180.051 366.121 L 180.051 366.121 Q 180.717 366.391 181.23 366.859 L 181.23 366.859 L 181.23 366.859 Q 181.743 367.327 182.04 367.93 L 182.04 367.93 L 182.04 367.93 Q 182.337 368.533 182.337 369.181 L 182.337 369.181 L 181.959 368.911 L 181.959 362.485 L 181.959 362.485 Q 181.959 362.269 182.103 362.107 L 182.103 362.107 L 182.103 362.107 Q 182.247 361.945 182.499 361.945 Z  M 178.755 374.437 L 178.755 374.437 L 178.755 374.437 Q 179.709 374.437 180.447 373.942 L 180.447 373.942 L 180.447 373.942 Q 181.185 373.447 181.608 372.592 L 181.608 372.592 L 181.608 372.592 Q 182.031 371.737 182.031 370.639 L 182.031 370.639 L 182.031 370.639 Q 182.031 369.559 181.608 368.704 L 181.608 368.704 L 181.608 368.704 Q 181.185 367.849 180.447 367.354 L 180.447 367.354 L 180.447 367.354 Q 179.709 366.859 178.755 366.859 L 178.755 366.859 L 178.755 366.859 Q 177.819 366.859 177.072 367.354 L 177.072 367.354 L 177.072 367.354 Q 176.325 367.849 175.902 368.704 L 175.902 368.704 L 175.902 368.704 Q 175.479 369.559 175.479 370.639 L 175.479 370.639 L 175.479 370.639 Q 175.479 371.719 175.902 372.583 L 175.902 372.583 L 175.902 372.583 Q 176.325 373.447 177.072 373.942 L 177.072 373.942 L 177.072 373.942 Q 177.819 374.437 178.755 374.437 Z  M 189.951 375.445 L 189.951 375.445 L 189.951 375.445 Q 188.565 375.445 187.503 374.851 L 187.503 374.851 L 187.503 374.851 Q 186.441 374.257 185.847 373.195 L 185.847 373.195 L 185.847 373.195 Q 185.253 372.133 185.253 370.711 L 185.253 370.711 L 185.253 370.711 Q 185.253 369.181 185.856 368.101 L 185.856 368.101 L 185.856 368.101 Q 186.459 367.021 187.422 366.436 L 187.422 366.436 L 187.422 366.436 Q 188.385 365.851 189.465 365.851 L 189.465 365.851 L 189.465 365.851 Q 190.257 365.851 191.004 366.13 L 191.004 366.13 L 191.004 366.13 Q 191.751 366.409 192.327 366.958 L 192.327 366.958 L 192.327 366.958 Q 192.903 367.507 193.263 368.299 L 193.263 368.299 L 193.263 368.299 Q 193.623 369.091 193.641 370.135 L 193.641 370.135 L 193.641 370.135 Q 193.641 370.351 193.479 370.504 L 193.479 370.504 L 193.479 370.504 Q 193.317 370.657 193.101 370.657 L 193.101 370.657 L 185.883 370.657 L 185.667 369.685 L 192.759 369.685 L 192.525 369.901 L 192.525 369.541 L 192.525 369.541 Q 192.435 368.695 191.967 368.101 L 191.967 368.101 L 191.967 368.101 Q 191.499 367.507 190.842 367.201 L 190.842 367.201 L 190.842 367.201 Q 190.185 366.895 189.465 366.895 L 189.465 366.895 L 189.465 366.895 Q 188.925 366.895 188.358 367.111 L 188.358 367.111 L 188.358 367.111 Q 187.791 367.327 187.332 367.786 L 187.332 367.786 L 187.332 367.786 Q 186.873 368.245 186.585 368.956 L 186.585 368.956 L 186.585 368.956 Q 186.297 369.667 186.297 370.639 L 186.297 370.639 L 186.297 370.639 Q 186.297 371.701 186.729 372.565 L 186.729 372.565 L 186.729 372.565 Q 187.161 373.429 187.971 373.933 L 187.971 373.933 L 187.971 373.933 Q 188.781 374.437 189.933 374.437 L 189.933 374.437 L 189.933 374.437 Q 190.545 374.437 191.049 374.257 L 191.049 374.257 L 191.049 374.257 Q 191.553 374.077 191.94 373.78 L 191.94 373.78 L 191.94 373.78 Q 192.327 373.483 192.579 373.159 L 192.579 373.159 L 192.579 373.159 Q 192.777 372.997 192.957 372.997 L 192.957 372.997 L 192.957 372.997 Q 193.155 372.997 193.29 373.141 L 193.29 373.141 L 193.29 373.141 Q 193.425 373.285 193.425 373.465 L 193.425 373.465 L 193.425 373.465 Q 193.425 373.681 193.245 373.843 L 193.245 373.843 L 193.245 373.843 Q 192.705 374.491 191.841 374.968 L 191.841 374.968 L 191.841 374.968 Q 190.977 375.445 189.951 375.445 Z  M 117.915 362.665 L 117.915 362.665 L 117.915 362.665 Q 118.041 362.665 118.176 362.719 L 118.176 362.719 L 118.176 362.719 Q 118.311 362.773 118.401 362.899 L 118.401 362.899 L 123.369 370.351 L 122.883 370.333 L 127.869 362.899 L 127.869 362.899 Q 128.067 362.629 128.355 362.665 L 128.355 362.665 L 128.355 362.665 Q 128.571 362.665 128.724 362.818 L 128.724 362.818 L 128.724 362.818 Q 128.877 362.971 128.877 363.205 L 128.877 363.205 L 128.877 374.725 L 128.877 374.725 Q 128.877 374.941 128.715 375.103 L 128.715 375.103 L 128.715 375.103 Q 128.553 375.265 128.319 375.265 L 128.319 375.265 L 128.319 375.265 Q 128.067 375.265 127.905 375.103 L 127.905 375.103 L 127.905 375.103 Q 127.743 374.941 127.743 374.725 L 127.743 374.725 L 127.743 364.303 L 128.067 364.339 L 123.513 371.233 L 123.513 371.233 Q 123.459 371.341 123.351 371.404 L 123.351 371.404 L 123.351 371.404 Q 123.243 371.467 123.099 371.449 L 123.099 371.449 L 123.099 371.449 Q 122.973 371.467 122.856 371.404 L 122.856 371.404 L 122.856 371.404 Q 122.739 371.341 122.667 371.233 L 122.667 371.233 L 118.095 364.267 L 118.437 364.033 L 118.437 374.725 L 118.437 374.725 Q 118.437 374.941 118.284 375.103 L 118.284 375.103 L 118.284 375.103 Q 118.131 375.265 117.897 375.265 L 117.897 375.265 L 117.897 375.265 Q 117.663 375.265 117.519 375.103 L 117.519 375.103 L 117.519 375.103 Q 117.375 374.941 117.375 374.725 L 117.375 374.725 L 117.375 363.205 L 117.375 363.205 Q 117.375 362.989 117.528 362.827 L 117.528 362.827 L 117.528 362.827 Q 117.681 362.665 117.915 362.665 Z  M 139.461 366.067 L 139.461 366.067 L 139.461 366.067 Q 139.695 366.067 139.848 366.229 L 139.848 366.229 L 139.848 366.229 Q 140.001 366.391 140.001 366.625 L 140.001 366.625 L 140.001 374.725 L 140.001 374.725 Q 140.001 374.941 139.839 375.103 L 139.839 375.103 L 139.839 375.103 Q 139.677 375.265 139.461 375.265 L 139.461 375.265 L 139.461 375.265 Q 139.209 375.265 139.065 375.103 L 139.065 375.103 L 139.065 375.103 Q 138.921 374.941 138.921 374.725 L 138.921 374.725 L 138.921 372.583 L 139.227 372.439 L 139.227 372.439 Q 139.227 372.943 138.948 373.465 L 138.948 373.465 L 138.948 373.465 Q 138.669 373.987 138.183 374.437 L 138.183 374.437 L 138.183 374.437 Q 137.697 374.887 137.04 375.166 L 137.04 375.166 L 137.04 375.166 Q 136.383 375.445 135.609 375.445 L 135.609 375.445 L 135.609 375.445 Q 134.403 375.445 133.44 374.815 L 133.44 374.815 L 133.44 374.815 Q 132.477 374.185 131.928 373.087 L 131.928 373.087 L 131.928 373.087 Q 131.379 371.989 131.379 370.621 L 131.379 370.621 L 131.379 370.621 Q 131.379 369.217 131.937 368.146 L 131.937 368.146 L 131.937 368.146 Q 132.495 367.075 133.449 366.463 L 133.449 366.463 L 133.449 366.463 Q 134.403 365.851 135.591 365.851 L 135.591 365.851 L 135.591 365.851 Q 136.365 365.851 137.04 366.121 L 137.04 366.121 L 137.04 366.121 Q 137.715 366.391 138.219 366.859 L 138.219 366.859 L 138.219 366.859 Q 138.723 367.327 139.011 367.93 L 139.011 367.93 L 139.011 367.93 Q 139.299 368.533 139.299 369.181 L 139.299 369.181 L 138.921 368.911 L 138.921 366.625 L 138.921 366.625 Q 138.921 366.391 139.065 366.229 L 139.065 366.229 L 139.065 366.229 Q 139.209 366.067 139.461 366.067 Z  M 135.717 374.437 L 135.717 374.437 L 135.717 374.437 Q 136.671 374.437 137.409 373.942 L 137.409 373.942 L 137.409 373.942 Q 138.147 373.447 138.57 372.574 L 138.57 372.574 L 138.57 372.574 Q 138.993 371.701 138.993 370.621 L 138.993 370.621 L 138.993 370.621 Q 138.993 369.559 138.57 368.713 L 138.57 368.713 L 138.57 368.713 Q 138.147 367.867 137.409 367.363 L 137.409 367.363 L 137.409 367.363 Q 136.671 366.859 135.717 366.859 L 135.717 366.859 L 135.717 366.859 Q 134.781 366.859 134.034 367.345 L 134.034 367.345 L 134.034 367.345 Q 133.287 367.831 132.864 368.677 L 132.864 368.677 L 132.864 368.677 Q 132.441 369.523 132.441 370.621 L 132.441 370.621 L 132.441 370.621 Q 132.441 371.701 132.855 372.574 L 132.855 372.574 L 132.855 372.574 Q 133.269 373.447 134.016 373.942 L 134.016 373.942 L 134.016 373.942 Q 134.763 374.437 135.717 374.437 Z  M 143.367 375.265 L 143.367 375.265 L 143.367 375.265 Q 143.115 375.265 142.971 375.103 L 142.971 375.103 L 142.971 375.103 Q 142.827 374.941 142.827 374.725 L 142.827 374.725 L 142.827 366.661 L 142.827 366.661 Q 142.827 366.445 142.98 366.283 L 142.98 366.283 L 142.98 366.283 Q 143.133 366.121 143.367 366.121 L 143.367 366.121 L 143.367 366.121 Q 143.601 366.121 143.754 366.283 L 143.754 366.283 L 143.754 366.283 Q 143.907 366.445 143.907 366.661 L 143.907 366.661 L 143.907 369.361 L 143.637 369.415 L 143.637 369.415 Q 143.691 368.785 143.952 368.164 L 143.952 368.164 L 143.952 368.164 Q 144.213 367.543 144.663 367.021 L 144.663 367.021 L 144.663 367.021 Q 145.113 366.499 145.734 366.175 L 145.734 366.175 L 145.734 366.175 Q 146.355 365.851 147.129 365.851 L 147.129 365.851 L 147.129 365.851 Q 147.453 365.851 147.759 365.986 L 147.759 365.986 L 147.759 365.986 Q 148.065 366.121 148.065 366.427 L 148.065 366.427 L 148.065 366.427 Q 148.065 366.697 147.921 366.841 L 147.921 366.841 L 147.921 366.841 Q 147.777 366.985 147.579 366.985 L 147.579 366.985 L 147.579 366.985 Q 147.417 366.985 147.228 366.895 L 147.228 366.895 L 147.228 366.895 Q 147.039 366.805 146.733 366.805 L 146.733 366.805 L 146.733 366.805 Q 146.229 366.805 145.725 367.102 L 145.725 367.102 L 145.725 367.102 Q 145.221 367.399 144.807 367.903 L 144.807 367.903 L 144.807 367.903 Q 144.393 368.407 144.15 369.028 L 144.15 369.028 L 144.15 369.028 Q 143.907 369.649 143.907 370.279 L 143.907 370.279 L 143.907 374.725 L 143.907 374.725 Q 143.907 374.941 143.745 375.103 L 143.745 375.103 L 143.745 375.103 Q 143.583 375.265 143.367 375.265 Z  M 149.163 366.103 L 149.163 366.103 L 153.357 366.103 L 153.357 366.103 Q 153.573 366.103 153.717 366.256 L 153.717 366.256 L 153.717 366.256 Q 153.861 366.409 153.861 366.625 L 153.861 366.625 L 153.861 366.625 Q 153.861 366.823 153.717 366.967 L 153.717 366.967 L 153.717 366.967 Q 153.573 367.111 153.357 367.111 L 153.357 367.111 L 149.163 367.111 L 149.163 367.111 Q 148.947 367.111 148.794 366.958 L 148.794 366.958 L 148.794 366.958 Q 148.641 366.805 148.641 366.607 L 148.641 366.607 L 148.641 366.607 Q 148.641 366.391 148.794 366.247 L 148.794 366.247 L 148.794 366.247 Q 148.947 366.103 149.163 366.103 Z  M 151.017 363.565 L 151.017 363.565 L 151.017 363.565 Q 151.251 363.565 151.404 363.727 L 151.404 363.727 L 151.404 363.727 Q 151.557 363.889 151.557 364.105 L 151.557 364.105 L 151.557 373.141 L 151.557 373.141 Q 151.557 373.645 151.692 373.897 L 151.692 373.897 L 151.692 373.897 Q 151.827 374.149 152.043 374.23 L 152.043 374.23 L 152.043 374.23 Q 152.259 374.311 152.475 374.311 L 152.475 374.311 L 152.475 374.311 Q 152.619 374.311 152.736 374.266 L 152.736 374.266 L 152.736 374.266 Q 152.853 374.221 152.997 374.221 L 152.997 374.221 L 152.997 374.221 Q 153.159 374.221 153.276 374.347 L 153.276 374.347 L 153.276 374.347 Q 153.393 374.473 153.393 374.671 L 153.393 374.671 L 153.393 374.671 Q 153.393 374.923 153.105 375.094 L 153.105 375.094 L 153.105 375.094 Q 152.817 375.265 152.421 375.265 L 152.421 375.265 L 152.421 375.265 Q 152.259 375.265 151.935 375.238 L 151.935 375.238 L 151.935 375.238 Q 151.611 375.211 151.269 375.04 L 151.269 375.04 L 151.269 375.04 Q 150.927 374.869 150.702 374.437 L 150.702 374.437 L 150.702 374.437 Q 150.477 374.005 150.477 373.195 L 150.477 373.195 L 150.477 364.105 L 150.477 364.105 Q 150.477 363.889 150.63 363.727 L 150.63 363.727 L 150.63 363.727 Q 150.783 363.565 151.017 363.565 Z  M 156.903 366.445 L 156.903 374.725 L 156.903 374.725 Q 156.903 374.941 156.741 375.103 L 156.741 375.103 L 156.741 375.103 Q 156.579 375.265 156.363 375.265 L 156.363 375.265 L 156.363 375.265 Q 156.129 375.265 155.976 375.103 L 155.976 375.103 L 155.976 375.103 Q 155.823 374.941 155.823 374.725 L 155.823 374.725 L 155.823 366.445 L 155.823 366.445 Q 155.823 366.229 155.976 366.067 L 155.976 366.067 L 155.976 366.067 Q 156.129 365.905 156.363 365.905 L 156.363 365.905 L 156.363 365.905 Q 156.597 365.905 156.75 366.067 L 156.75 366.067 L 156.75 366.067 Q 156.903 366.229 156.903 366.445 L 156.903 366.445 Z  M 156.363 364.699 L 156.363 364.699 L 156.363 364.699 Q 155.985 364.699 155.796 364.528 L 155.796 364.528 L 155.796 364.528 Q 155.607 364.357 155.607 364.033 L 155.607 364.033 L 155.607 363.853 L 155.607 363.853 Q 155.607 363.529 155.814 363.358 L 155.814 363.358 L 155.814 363.358 Q 156.021 363.187 156.381 363.187 L 156.381 363.187 L 156.381 363.187 Q 156.723 363.187 156.912 363.358 L 156.912 363.358 L 156.912 363.358 Q 157.101 363.529 157.101 363.853 L 157.101 363.853 L 157.101 364.033 L 157.101 364.033 Q 157.101 364.357 156.912 364.528 L 156.912 364.528 L 156.912 364.528 Q 156.723 364.699 156.363 364.699 Z  M 164.049 365.851 L 164.049 365.851 L 164.049 365.851 Q 165.237 365.851 165.948 366.328 L 165.948 366.328 L 165.948 366.328 Q 166.659 366.805 166.974 367.624 L 166.974 367.624 L 166.974 367.624 Q 167.289 368.443 167.289 369.433 L 167.289 369.433 L 167.289 374.725 L 167.289 374.725 Q 167.289 374.941 167.127 375.103 L 167.127 375.103 L 167.127 375.103 Q 166.965 375.265 166.749 375.265 L 166.749 375.265 L 166.749 375.265 Q 166.497 375.265 166.353 375.103 L 166.353 375.103 L 166.353 375.103 Q 166.209 374.941 166.209 374.725 L 166.209 374.725 L 166.209 369.487 L 166.209 369.487 Q 166.209 368.767 165.975 368.173 L 165.975 368.173 L 165.975 368.173 Q 165.741 367.579 165.21 367.219 L 165.21 367.219 L 165.21 367.219 Q 164.679 366.859 163.815 366.859 L 163.815 366.859 L 163.815 366.859 Q 163.041 366.859 162.348 367.219 L 162.348 367.219 L 162.348 367.219 Q 161.655 367.579 161.223 368.173 L 161.223 368.173 L 161.223 368.173 Q 160.791 368.767 160.791 369.487 L 160.791 369.487 L 160.791 374.725 L 160.791 374.725 Q 160.791 374.941 160.629 375.103 L 160.629 375.103 L 160.629 375.103 Q 160.467 375.265 160.251 375.265 L 160.251 375.265 L 160.251 375.265 Q 159.999 375.265 159.855 375.103 L 159.855 375.103 L 159.855 375.103 Q 159.711 374.941 159.711 374.725 L 159.711 374.725 L 159.711 366.661 L 159.711 366.661 Q 159.711 366.445 159.864 366.283 L 159.864 366.283 L 159.864 366.283 Q 160.017 366.121 160.251 366.121 L 160.251 366.121 L 160.251 366.121 Q 160.485 366.121 160.638 366.283 L 160.638 366.283 L 160.638 366.283 Q 160.791 366.445 160.791 366.661 L 160.791 366.661 L 160.791 368.173 L 160.377 368.821 L 160.377 368.821 Q 160.413 368.245 160.746 367.714 L 160.746 367.714 L 160.746 367.714 Q 161.079 367.183 161.601 366.76 L 161.601 366.76 L 161.601 366.76 Q 162.123 366.337 162.762 366.094 L 162.762 366.094 L 162.762 366.094 Q 163.401 365.851 164.049 365.851 Z  M 84.579 375.445 L 84.579 375.445 L 84.579 375.445 Q 83.211 375.463 82.203 375.013 L 82.203 375.013 L 82.203 375.013 Q 81.195 374.563 80.277 373.663 L 80.277 373.663 L 80.277 373.663 Q 80.187 373.591 80.124 373.483 L 80.124 373.483 L 80.124 373.483 Q 80.061 373.375 80.061 373.231 L 80.061 373.231 L 80.061 373.231 Q 80.061 373.015 80.232 372.835 L 80.232 372.835 L 80.232 372.835 Q 80.403 372.655 80.619 372.655 L 80.619 372.655 L 80.619 372.655 Q 80.835 372.655 81.015 372.835 L 81.015 372.835 L 81.015 372.835 Q 81.717 373.591 82.608 373.987 L 82.608 373.987 L 82.608 373.987 Q 83.499 374.383 84.525 374.383 L 84.525 374.383 L 84.525 374.383 Q 85.389 374.383 86.064 374.113 L 86.064 374.113 L 86.064 374.113 Q 86.739 373.843 87.135 373.339 L 87.135 373.339 L 87.135 373.339 Q 87.531 372.835 87.531 372.169 L 87.531 372.169 L 87.531 372.169 Q 87.531 371.341 87.081 370.828 L 87.081 370.828 L 87.081 370.828 Q 86.631 370.315 85.893 369.982 L 85.893 369.982 L 85.893 369.982 Q 85.155 369.649 84.255 369.379 L 84.255 369.379 L 84.255 369.379 Q 83.517 369.163 82.851 368.884 L 82.851 368.884 L 82.851 368.884 Q 82.185 368.605 81.663 368.2 L 81.663 368.2 L 81.663 368.2 Q 81.141 367.795 80.853 367.201 L 80.853 367.201 L 80.853 367.201 Q 80.565 366.607 80.565 365.761 L 80.565 365.761 L 80.565 365.761 Q 80.565 364.807 81.069 364.069 L 81.069 364.069 L 81.069 364.069 Q 81.573 363.331 82.5 362.908 L 82.5 362.908 L 82.5 362.908 Q 83.427 362.485 84.651 362.485 L 84.651 362.485 L 84.651 362.485 Q 85.713 362.485 86.694 362.845 L 86.694 362.845 L 86.694 362.845 Q 87.675 363.205 88.251 363.907 L 88.251 363.907 L 88.251 363.907 Q 88.521 364.195 88.521 364.429 L 88.521 364.429 L 88.521 364.429 Q 88.521 364.609 88.341 364.789 L 88.341 364.789 L 88.341 364.789 Q 88.161 364.969 87.945 364.969 L 87.945 364.969 L 87.945 364.969 Q 87.765 364.969 87.639 364.843 L 87.639 364.843 L 87.639 364.843 Q 87.333 364.465 86.865 364.168 L 86.865 364.168 L 86.865 364.168 Q 86.397 363.871 85.83 363.709 L 85.83 363.709 L 85.83 363.709 Q 85.263 363.547 84.651 363.547 L 84.651 363.547 L 84.651 363.547 Q 83.805 363.547 83.13 363.808 L 83.13 363.808 L 83.13 363.808 Q 82.455 364.069 82.068 364.555 L 82.068 364.555 L 82.068 364.555 Q 81.681 365.041 81.681 365.725 L 81.681 365.725 L 81.681 365.725 Q 81.681 366.481 82.113 366.967 L 82.113 366.967 L 82.113 366.967 Q 82.545 367.453 83.247 367.768 L 83.247 367.768 L 83.247 367.768 Q 83.949 368.083 84.741 368.353 L 84.741 368.353 L 84.741 368.353 Q 85.515 368.569 86.226 368.848 L 86.226 368.848 L 86.226 368.848 Q 86.937 369.127 87.486 369.541 L 87.486 369.541 L 87.486 369.541 Q 88.035 369.955 88.35 370.585 L 88.35 370.585 L 88.35 370.585 Q 88.665 371.215 88.665 372.169 L 88.665 372.169 L 88.665 372.169 Q 88.665 373.087 88.143 373.825 L 88.143 373.825 L 88.143 373.825 Q 87.621 374.563 86.712 374.995 L 86.712 374.995 L 86.712 374.995 Q 85.803 375.427 84.579 375.445 Z  M 98.421 366.067 L 98.421 366.067 L 98.421 366.067 Q 98.655 366.067 98.808 366.229 L 98.808 366.229 L 98.808 366.229 Q 98.961 366.391 98.961 366.625 L 98.961 366.625 L 98.961 374.725 L 98.961 374.725 Q 98.961 374.941 98.799 375.103 L 98.799 375.103 L 98.799 375.103 Q 98.637 375.265 98.421 375.265 L 98.421 375.265 L 98.421 375.265 Q 98.169 375.265 98.025 375.103 L 98.025 375.103 L 98.025 375.103 Q 97.881 374.941 97.881 374.725 L 97.881 374.725 L 97.881 372.583 L 98.187 372.439 L 98.187 372.439 Q 98.187 372.943 97.908 373.465 L 97.908 373.465 L 97.908 373.465 Q 97.629 373.987 97.143 374.437 L 97.143 374.437 L 97.143 374.437 Q 96.657 374.887 96 375.166 L 96 375.166 L 96 375.166 Q 95.343 375.445 94.569 375.445 L 94.569 375.445 L 94.569 375.445 Q 93.363 375.445 92.4 374.815 L 92.4 374.815 L 92.4 374.815 Q 91.437 374.185 90.888 373.087 L 90.888 373.087 L 90.888 373.087 Q 90.339 371.989 90.339 370.621 L 90.339 370.621 L 90.339 370.621 Q 90.339 369.217 90.897 368.146 L 90.897 368.146 L 90.897 368.146 Q 91.455 367.075 92.409 366.463 L 92.409 366.463 L 92.409 366.463 Q 93.363 365.851 94.551 365.851 L 94.551 365.851 L 94.551 365.851 Q 95.325 365.851 96 366.121 L 96 366.121 L 96 366.121 Q 96.675 366.391 97.179 366.859 L 97.179 366.859 L 97.179 366.859 Q 97.683 367.327 97.971 367.93 L 97.971 367.93 L 97.971 367.93 Q 98.259 368.533 98.259 369.181 L 98.259 369.181 L 97.881 368.911 L 97.881 366.625 L 97.881 366.625 Q 97.881 366.391 98.025 366.229 L 98.025 366.229 L 98.025 366.229 Q 98.169 366.067 98.421 366.067 Z  M 94.677 374.437 L 94.677 374.437 L 94.677 374.437 Q 95.631 374.437 96.369 373.942 L 96.369 373.942 L 96.369 373.942 Q 97.107 373.447 97.53 372.574 L 97.53 372.574 L 97.53 372.574 Q 97.953 371.701 97.953 370.621 L 97.953 370.621 L 97.953 370.621 Q 97.953 369.559 97.53 368.713 L 97.53 368.713 L 97.53 368.713 Q 97.107 367.867 96.369 367.363 L 96.369 367.363 L 96.369 367.363 Q 95.631 366.859 94.677 366.859 L 94.677 366.859 L 94.677 366.859 Q 93.741 366.859 92.994 367.345 L 92.994 367.345 L 92.994 367.345 Q 92.247 367.831 91.824 368.677 L 91.824 368.677 L 91.824 368.677 Q 91.401 369.523 91.401 370.621 L 91.401 370.621 L 91.401 370.621 Q 91.401 371.701 91.815 372.574 L 91.815 372.574 L 91.815 372.574 Q 92.229 373.447 92.976 373.942 L 92.976 373.942 L 92.976 373.942 Q 93.723 374.437 94.677 374.437 Z  M 106.125 365.851 L 106.125 365.851 L 106.125 365.851 Q 107.313 365.851 108.024 366.328 L 108.024 366.328 L 108.024 366.328 Q 108.735 366.805 109.05 367.624 L 109.05 367.624 L 109.05 367.624 Q 109.365 368.443 109.365 369.433 L 109.365 369.433 L 109.365 374.725 L 109.365 374.725 Q 109.365 374.941 109.203 375.103 L 109.203 375.103 L 109.203 375.103 Q 109.041 375.265 108.825 375.265 L 108.825 375.265 L 108.825 375.265 Q 108.573 375.265 108.429 375.103 L 108.429 375.103 L 108.429 375.103 Q 108.285 374.941 108.285 374.725 L 108.285 374.725 L 108.285 369.487 L 108.285 369.487 Q 108.285 368.767 108.051 368.173 L 108.051 368.173 L 108.051 368.173 Q 107.817 367.579 107.286 367.219 L 107.286 367.219 L 107.286 367.219 Q 106.755 366.859 105.891 366.859 L 105.891 366.859 L 105.891 366.859 Q 105.117 366.859 104.424 367.219 L 104.424 367.219 L 104.424 367.219 Q 103.731 367.579 103.299 368.173 L 103.299 368.173 L 103.299 368.173 Q 102.867 368.767 102.867 369.487 L 102.867 369.487 L 102.867 374.725 L 102.867 374.725 Q 102.867 374.941 102.705 375.103 L 102.705 375.103 L 102.705 375.103 Q 102.543 375.265 102.327 375.265 L 102.327 375.265 L 102.327 375.265 Q 102.075 375.265 101.931 375.103 L 101.931 375.103 L 101.931 375.103 Q 101.787 374.941 101.787 374.725 L 101.787 374.725 L 101.787 366.661 L 101.787 366.661 Q 101.787 366.445 101.94 366.283 L 101.94 366.283 L 101.94 366.283 Q 102.093 366.121 102.327 366.121 L 102.327 366.121 L 102.327 366.121 Q 102.561 366.121 102.714 366.283 L 102.714 366.283 L 102.714 366.283 Q 102.867 366.445 102.867 366.661 L 102.867 366.661 L 102.867 368.173 L 102.453 368.821 L 102.453 368.821 Q 102.489 368.245 102.822 367.714 L 102.822 367.714 L 102.822 367.714 Q 103.155 367.183 103.677 366.76 L 103.677 366.76 L 103.677 366.76 Q 104.199 366.337 104.838 366.094 L 104.838 366.094 L 104.838 366.094 Q 105.477 365.851 106.125 365.851 Z " fill="rgb(255,145,77)"/></g></g></svg>