<?xml version="1.0" encoding="UTF-8" standalone="no"?><!-- Generator: Gravit.io --><svg xmlns="http://www.w3.org/2000/svg" xmlns:xlink="http://www.w3.org/1999/xlink" style="isolation:isolate" viewBox="0 0 458 358" width="458pt" height="358pt"><defs><clipPath id="_clipPath_k1EMVyZBDSMYDp06ik3upRyvNfZ8wkQZ"><rect width="458" height="358"/></clipPath></defs><g clip-path="url(#_clipPath_k1EMVyZBDSMYDp06ik3upRyvNfZ8wkQZ)"><g><g><path d=" M 24.92 192.423 C 27.754 228.747 69.013 269.993 121.848 269.993 C 174.684 269.993 185.299 252.052 214.272 216.247 C 231.593 194.84 229.569 161.78 210.261 186.35 C 196.281 204.126 168.75 233.479 142.522 224.002 C 113.637 213.577 81.07 163.425 68.039 196.004 C 59.941 216.234 23.212 170.598 24.92 192.423 Z " fill="rgb(200,148,40)" fill-opacity="0.8"/><path d=" M 221.965 208.263 C 219.232 241.374 179.428 278.975 128.465 278.975 C 77.502 278.975 30.462 242.854 30.462 200.887 C 30.462 187.122 48.39 242.095 76.187 231.783 C 96.493 224.256 101.01 238.451 135.259 238.451 C 161.993 238.451 160.387 206.53 177.239 221.485 C 192.523 235.048 223.597 188.362 221.952 208.263 L 221.965 208.263 Z " fill="rgb(121,165,127)"/><path d=" M 70.117 196.377 C 65.383 203.368 61.411 208.798 95.719 194.277 C 95.719 194.277 79.29 176.317 70.117 196.377 Z " fill="rgb(251,248,248)" fill-opacity="0.95"/><defs><filter id="BveCwTutkLDG6ELQrcC8MdhLqCbgl2xu" x="-200%" y="-200%" width="400%" height="400%" filterUnits="objectBoundingBox" color-interpolation-filters="sRGB"><feGaussianBlur xmlns="http://www.w3.org/2000/svg" in="SourceGraphic" stdDeviation="2.146804531419514"/><feOffset xmlns="http://www.w3.org/2000/svg" dx="0" dy="0" result="pf_100_offsetBlur"/><feFlood xmlns="http://www.w3.org/2000/svg" flood-color="#007F47" flood-opacity="0.65"/><feComposite xmlns="http://www.w3.org/2000/svg" in2="pf_100_offsetBlur" operator="in" result="pf_100_dropShadow"/><feBlend xmlns="http://www.w3.org/2000/svg" in="SourceGraphic" in2="pf_100_dropShadow" mode="normal"/></filter></defs><g filter="url(#BveCwTutkLDG6ELQrcC8MdhLqCbgl2xu)"><path d=" M 223.984 209.354 C 228.978 193.246 229.752 176.822 226.99 161.249 L 224.151 168.012 C 225.641 181.151 224.521 194.804 220.362 208.218 C 204.244 260.206 148.835 289.389 96.846 273.271 C 44.858 257.153 15.675 201.744 31.793 149.756 C 47.911 97.769 103.317 68.598 155.305 84.716 C 172.26 89.972 186.774 99.426 198.1 111.561 L 203.645 112.048 C 191.518 97.969 175.451 86.988 156.429 81.09 C 102.447 64.354 44.9 94.663 28.164 148.644 C 11.428 202.626 41.724 260.168 95.719 276.908 C 149.713 293.648 207.248 263.336 223.984 209.354 Z " fill="rgb(255,145,77)" fill-opacity="0.9"/></g><ellipse vector-effect="non-scaling-stroke" cx="199.6270029029805" cy="142.51733415718422" rx="22.387729694239965" ry="22.178741056464325" fill="rgb(255,145,77)" fill-opacity="0.7"/></g><g><defs><filter id="4kRfovoDUduszLjrt3zO8f1XYnUIygNd" x="-200%" y="-200%" width="400%" height="400%" filterUnits="objectBoundingBox" color-interpolation-filters="sRGB"><feGaussianBlur xmlns="http://www.w3.org/2000/svg" in="SourceGraphic" stdDeviation="1.2880827188517086"/><feOffset xmlns="http://www.w3.org/2000/svg" dx="0" dy="0" result="pf_100_offsetBlur"/><feFlood xmlns="http://www.w3.org/2000/svg" flood-color="#007F47" flood-opacity="0.65"/><feComposite xmlns="http://www.w3.org/2000/svg" in2="pf_100_offsetBlur" operator="in" result="pf_100_dropShadow"/><feBlend xmlns="http://www.w3.org/2000/svg" in="SourceGraphic" in2="pf_100_dropShadow" mode="normal"/></filter></defs><g filter="url(#4kRfovoDUduszLjrt3zO8f1XYnUIygNd)"><path d=" M 246.797 177.549 L 246.797 177.549 L 246.797 177.549 Q 246.797 173.344 247.787 169.289 L 247.787 169.289 L 247.787 169.289 Q 248.777 165.234 250.577 161.599 L 250.577 161.599 L 250.577 161.599 Q 252.377 157.965 254.867 154.931 L 254.867 154.931 L 254.867 154.931 Q 257.357 151.897 260.327 149.675 L 260.327 149.675 L 260.327 149.675 Q 263.297 147.452 266.657 146.22 L 266.657 146.22 L 266.657 146.22 Q 270.017 144.989 273.557 144.989 L 273.557 144.989 L 273.557 144.989 Q 277.697 144.989 280.007 146.729 L 280.007 146.729 L 280.007 146.729 Q 282.317 148.469 282.317 151.589 L 282.317 151.589 L 282.317 151.589 Q 282.317 152.789 281.987 154.049 L 281.987 154.049 L 281.987 154.049 Q 281.657 155.309 281.027 156.539 L 281.027 156.539 L 281.027 156.539 Q 280.397 157.769 279.557 158.909 L 279.557 158.909 L 279.557 158.909 Q 278.717 160.049 277.697 160.889 L 277.697 160.889 L 277.697 160.889 Q 276.137 160.649 274.997 159.479 L 274.997 159.479 L 274.997 159.479 Q 273.857 158.309 273.557 156.749 L 273.557 156.749 L 273.557 156.749 Q 275.657 155.009 276.887 153.119 L 276.887 153.119 L 276.887 153.119 Q 278.117 151.229 278.117 149.669 L 278.117 149.669 L 278.117 149.669 Q 278.117 147.029 274.817 147.029 L 274.817 147.029 L 274.817 147.029 Q 273.437 147.029 271.967 147.599 L 271.967 147.599 L 271.967 147.599 Q 270.497 148.169 268.997 149.189 L 268.997 149.189 L 268.997 149.189 Q 267.497 150.209 266.087 151.649 L 266.087 151.649 L 266.087 151.649 Q 264.677 153.089 263.477 154.829 L 263.477 154.829 L 263.477 154.829 Q 255.137 166.829 255.137 179.369 L 255.137 179.369 L 255.137 179.369 Q 255.137 183.809 256.517 186.509 L 256.517 186.509 L 256.517 186.509 Q 257.897 189.209 260.177 189.689 L 260.177 189.689 L 260.177 189.689 Q 262.757 189.089 266.717 186.389 L 266.717 186.389 L 266.717 186.389 Q 270.677 183.689 275.357 179.369 L 275.357 179.369 L 275.357 179.369 Q 275.957 179.969 276.077 180.629 L 276.077 180.629 L 276.077 180.629 Q 274.337 182.898 272.477 184.989 L 272.477 184.989 L 272.477 184.989 Q 270.617 187.08 268.787 188.812 L 268.787 188.812 L 268.787 188.812 Q 266.957 190.544 265.187 191.858 L 265.187 191.858 L 265.187 191.858 Q 263.417 193.172 261.917 193.889 L 261.917 193.889 L 261.917 193.889 Q 254.477 193.889 250.637 189.744 L 250.637 189.744 L 250.637 189.744 Q 246.797 185.599 246.797 177.549 Z  M 296.657 187.949 L 296.657 187.949 L 296.657 187.949 Q 295.517 186.989 295.127 185.549 L 295.127 185.549 L 295.127 185.549 Q 294.737 184.109 294.737 183.089 L 294.737 183.089 L 294.737 183.089 Q 294.737 181.829 295.037 180.929 L 295.037 180.929 L 295.037 180.929 Q 294.797 180.929 293.957 181.886 L 293.957 181.886 L 293.957 181.886 Q 293.117 182.843 292.127 184.159 L 292.127 184.159 L 292.127 184.159 Q 291.137 185.474 290.177 186.73 L 290.177 186.73 L 290.177 186.73 Q 289.217 187.986 288.737 188.585 L 288.737 188.585 L 288.737 188.585 Q 287.957 189.422 287.267 189.9 L 287.267 189.9 L 287.267 189.9 Q 286.577 190.379 286.157 190.439 L 286.157 190.439 L 286.157 190.439 Q 285.197 190.439 284.147 190.107 L 284.147 190.107 L 284.147 190.107 Q 283.097 189.774 282.167 189.171 L 282.167 189.171 L 282.167 189.171 Q 281.237 188.567 280.547 187.721 L 280.547 187.721 L 280.547 187.721 Q 279.857 186.876 279.617 185.789 L 279.617 185.789 L 279.617 185.789 Q 279.617 184.109 279.707 183.029 L 279.707 183.029 L 279.707 183.029 Q 279.797 181.949 280.097 180.689 L 280.097 180.689 L 280.097 180.689 Q 280.637 178.409 281.687 175.529 L 281.687 175.529 L 281.687 175.529 Q 282.737 172.649 284.117 169.859 L 284.117 169.859 L 284.117 169.859 Q 285.497 167.069 287.207 164.639 L 287.207 164.639 L 287.207 164.639 Q 288.917 162.209 290.837 160.829 L 290.837 160.829 L 290.837 160.829 Q 291.377 160.829 292.097 160.919 L 292.097 160.919 L 292.097 160.919 Q 292.817 161.009 293.567 161.249 L 293.567 161.249 L 293.567 161.249 Q 294.317 161.489 295.007 161.819 L 295.007 161.819 L 295.007 161.819 Q 295.697 162.149 296.177 162.689 L 296.177 162.689 L 296.177 162.689 Q 295.637 163.289 293.447 166.709 L 293.447 166.709 L 293.447 166.709 Q 291.257 170.129 288.557 176.549 L 288.557 176.549 L 288.557 176.549 Q 288.257 177.209 287.837 178.469 L 287.837 178.469 L 287.837 178.469 Q 287.417 179.729 286.997 181.109 L 286.997 181.109 L 286.997 181.109 Q 286.577 182.489 286.307 183.809 L 286.307 183.809 L 286.307 183.809 Q 286.037 185.129 286.037 185.909 L 286.037 185.909 L 286.037 185.909 Q 286.037 186.389 286.187 186.629 L 286.187 186.629 L 286.187 186.629 Q 286.337 186.869 286.457 186.989 L 286.457 186.989 L 286.457 186.989 Q 287.357 186.629 288.737 185.009 L 288.737 185.009 L 288.737 185.009 Q 290.117 183.389 292.577 180.029 L 292.577 180.029 L 292.577 180.029 Q 293.177 179.189 293.987 178.109 L 293.987 178.109 L 293.987 178.109 Q 294.797 177.029 295.637 175.799 L 295.637 175.799 L 295.637 175.799 Q 296.477 174.569 297.227 173.249 L 297.227 173.249 L 297.227 173.249 Q 297.977 171.929 298.457 170.609 L 298.457 170.609 L 298.457 170.609 Q 298.697 169.889 299.087 168.899 L 299.087 168.899 L 299.087 168.899 Q 299.477 167.909 300.047 166.829 L 300.047 166.829 L 300.047 166.829 Q 300.617 165.749 301.367 164.639 L 301.367 164.639 L 301.367 164.639 Q 302.117 163.529 303.137 162.569 L 303.137 162.569 L 303.137 162.569 Q 303.917 162.569 304.817 162.749 L 304.817 162.749 L 304.817 162.749 Q 305.717 162.929 306.527 163.199 L 306.527 163.199 L 306.527 163.199 Q 307.337 163.469 307.937 163.799 L 307.937 163.799 L 307.937 163.799 Q 308.537 164.129 308.837 164.489 L 308.837 164.489 L 308.837 164.489 Q 307.757 167.129 306.437 169.709 L 306.437 169.709 L 306.437 169.709 Q 305.117 172.289 303.977 174.779 L 303.977 174.779 L 303.977 174.779 Q 302.837 177.269 302.057 179.729 L 302.057 179.729 L 302.057 179.729 Q 301.277 182.189 301.277 184.529 L 301.277 184.529 L 301.277 184.529 Q 301.277 185.789 301.487 186.719 L 301.487 186.719 L 301.487 186.719 Q 301.697 187.649 301.937 188.279 L 301.937 188.279 L 301.937 188.279 Q 302.177 188.909 302.387 189.329 L 302.387 189.329 L 302.387 189.329 Q 302.597 189.749 302.597 190.049 L 302.597 190.049 L 302.597 190.049 Q 302.597 190.109 302.477 190.229 L 302.477 190.229 L 302.477 190.229 Q 302.417 190.289 302.357 190.289 L 302.357 190.289 L 302.357 190.289 Q 301.937 190.289 301.277 190.109 L 301.277 190.109 L 301.277 190.109 Q 300.617 189.929 299.807 189.599 L 299.807 189.599 L 299.807 189.599 Q 298.997 189.269 298.187 188.849 L 298.187 188.849 L 298.187 188.849 Q 297.377 188.429 296.657 187.949 Z  M 309.917 185.429 L 309.917 185.429 L 309.917 185.429 Q 309.917 182.789 311.177 178.019 L 311.177 178.019 L 311.177 178.019 Q 312.437 173.249 314.717 166.889 L 314.717 166.889 L 314.717 166.889 Q 318.437 156.749 321.707 149.999 L 321.707 149.999 L 321.707 149.999 Q 324.977 143.249 328.097 139.469 L 328.097 139.469 L 328.097 139.469 Q 328.817 139.589 329.867 140.069 L 329.867 140.069 L 329.867 140.069 Q 330.917 140.549 331.937 141.119 L 331.937 141.119 L 331.937 141.119 Q 332.957 141.689 333.767 142.289 L 333.767 142.289 L 333.767 142.289 Q 334.577 142.889 334.817 143.249 L 334.817 143.249 L 334.817 143.249 Q 330.137 148.769 326.597 155.129 L 326.597 155.129 L 326.597 155.129 Q 323.057 161.489 320.117 169.709 L 320.117 169.709 L 320.117 169.709 Q 317.597 176.789 316.277 182.459 L 316.277 182.459 L 316.277 182.459 Q 314.957 188.129 314.957 191.909 L 314.957 191.909 L 314.957 191.909 Q 314.957 192.929 314.957 193.169 L 314.957 193.169 L 314.957 193.169 Q 314.957 193.409 315.017 193.649 L 315.017 193.649 L 315.017 193.649 Q 314.177 193.529 313.577 193.229 L 313.577 193.229 L 313.577 193.229 Q 312.977 192.929 312.797 192.509 L 312.797 192.509 L 312.797 192.509 Q 312.677 192.209 312.137 191.639 L 312.137 191.639 L 312.137 191.639 Q 311.597 191.069 311.177 190.769 L 311.177 190.769 L 311.177 190.769 Q 310.637 190.409 310.277 188.879 L 310.277 188.879 L 310.277 188.879 Q 309.917 187.349 309.917 185.429 Z  M 331.097 166.289 L 327.677 166.289 L 327.677 166.289 Q 327.377 165.929 327.137 164.759 L 327.137 164.759 L 327.137 164.759 Q 326.897 163.589 326.897 162.749 L 326.897 162.749 L 326.897 162.749 Q 328.457 162.989 329.897 162.989 L 329.897 162.989 L 329.897 162.989 Q 331.337 162.989 332.537 162.989 L 332.537 162.989 L 332.537 162.989 Q 333.437 161.209 334.487 159.459 L 334.487 159.459 L 334.487 159.459 Q 335.537 157.709 336.527 156.256 L 336.527 156.256 L 336.527 156.256 Q 337.517 154.802 338.387 153.794 L 338.387 153.794 L 338.387 153.794 Q 339.257 152.785 339.737 152.489 L 339.737 152.489 L 339.737 152.489 Q 340.337 152.489 341.267 152.699 L 341.267 152.699 L 341.267 152.699 Q 342.197 152.909 343.157 153.239 L 343.157 153.239 L 343.157 153.239 Q 344.117 153.569 344.897 153.929 L 344.897 153.929 L 344.897 153.929 Q 345.677 154.289 345.977 154.649 L 345.977 154.649 L 345.977 154.649 Q 344.177 156.913 342.887 158.85 L 342.887 158.85 L 342.887 158.85 Q 341.597 160.786 340.097 163.289 L 340.097 163.289 L 340.097 163.289 Q 341.297 163.289 342.527 163.289 L 342.527 163.289 L 342.527 163.289 Q 343.757 163.289 345.017 163.109 L 345.017 163.109 L 345.017 163.109 Q 345.317 163.409 345.497 163.859 L 345.497 163.859 L 345.497 163.859 Q 345.677 164.309 345.677 164.789 L 345.677 164.789 L 345.677 164.789 Q 342.737 165.929 338.537 165.929 L 338.537 165.929 L 338.537 165.929 Q 337.037 168.816 335.867 171.673 L 335.867 171.673 L 335.867 171.673 Q 334.697 174.531 333.887 177.178 L 333.887 177.178 L 333.887 177.178 Q 333.077 179.824 332.627 182.17 L 332.627 182.17 L 332.627 182.17 Q 332.177 184.516 332.177 186.381 L 332.177 186.381 L 332.177 186.381 Q 332.177 189.028 334.157 189.329 L 334.157 189.329 L 334.157 189.329 Q 335.957 189.089 337.577 188.429 L 337.577 188.429 L 337.577 188.429 Q 339.197 187.769 340.457 186.749 L 340.457 186.749 L 340.457 186.749 Q 340.817 187.289 340.877 187.649 L 340.877 187.649 L 340.877 187.649 Q 340.517 188.185 339.647 188.9 L 339.647 188.9 L 339.647 188.9 Q 338.777 189.615 337.757 190.3 L 337.757 190.3 L 337.757 190.3 Q 336.737 190.986 335.777 191.462 L 335.777 191.462 L 335.777 191.462 Q 334.817 191.939 334.337 191.999 L 334.337 191.999 L 334.337 191.999 Q 332.837 191.999 331.337 191.398 L 331.337 191.398 L 331.337 191.398 Q 329.837 190.797 328.607 189.896 L 328.607 189.896 L 328.607 189.896 Q 327.377 188.995 326.597 187.884 L 326.597 187.884 L 326.597 187.884 Q 325.817 186.773 325.817 185.691 L 325.817 185.691 L 325.817 185.691 Q 325.817 184.25 326.207 182.057 L 326.207 182.057 L 326.207 182.057 Q 326.597 179.865 327.317 177.282 L 327.317 177.282 L 327.317 177.282 Q 328.037 174.699 328.997 171.875 L 328.997 171.875 L 328.997 171.875 Q 329.957 169.052 331.097 166.289 L 331.097 166.289 Z  M 361.577 187.949 L 361.577 187.949 L 361.577 187.949 Q 360.437 186.989 360.047 185.549 L 360.047 185.549 L 360.047 185.549 Q 359.657 184.109 359.657 183.089 L 359.657 183.089 L 359.657 183.089 Q 359.657 181.829 359.957 180.929 L 359.957 180.929 L 359.957 180.929 Q 359.717 180.929 358.877 181.886 L 358.877 181.886 L 358.877 181.886 Q 358.037 182.843 357.047 184.159 L 357.047 184.159 L 357.047 184.159 Q 356.057 185.474 355.097 186.73 L 355.097 186.73 L 355.097 186.73 Q 354.137 187.986 353.657 188.585 L 353.657 188.585 L 353.657 188.585 Q 352.877 189.422 352.187 189.9 L 352.187 189.9 L 352.187 189.9 Q 351.497 190.379 351.077 190.439 L 351.077 190.439 L 351.077 190.439 Q 350.117 190.439 349.067 190.107 L 349.067 190.107 L 349.067 190.107 Q 348.017 189.774 347.087 189.171 L 347.087 189.171 L 347.087 189.171 Q 346.157 188.567 345.467 187.721 L 345.467 187.721 L 345.467 187.721 Q 344.777 186.876 344.537 185.789 L 344.537 185.789 L 344.537 185.789 Q 344.537 184.109 344.627 183.029 L 344.627 183.029 L 344.627 183.029 Q 344.717 181.949 345.017 180.689 L 345.017 180.689 L 345.017 180.689 Q 345.557 178.409 346.607 175.529 L 346.607 175.529 L 346.607 175.529 Q 347.657 172.649 349.037 169.859 L 349.037 169.859 L 349.037 169.859 Q 350.417 167.069 352.127 164.639 L 352.127 164.639 L 352.127 164.639 Q 353.837 162.209 355.757 160.829 L 355.757 160.829 L 355.757 160.829 Q 356.297 160.829 357.017 160.919 L 357.017 160.919 L 357.017 160.919 Q 357.737 161.009 358.487 161.249 L 358.487 161.249 L 358.487 161.249 Q 359.237 161.489 359.927 161.819 L 359.927 161.819 L 359.927 161.819 Q 360.617 162.149 361.097 162.689 L 361.097 162.689 L 361.097 162.689 Q 360.557 163.289 358.367 166.709 L 358.367 166.709 L 358.367 166.709 Q 356.177 170.129 353.477 176.549 L 353.477 176.549 L 353.477 176.549 Q 353.177 177.209 352.757 178.469 L 352.757 178.469 L 352.757 178.469 Q 352.337 179.729 351.917 181.109 L 351.917 181.109 L 351.917 181.109 Q 351.497 182.489 351.227 183.809 L 351.227 183.809 L 351.227 183.809 Q 350.957 185.129 350.957 185.909 L 350.957 185.909 L 350.957 185.909 Q 350.957 186.389 351.107 186.629 L 351.107 186.629 L 351.107 186.629 Q 351.257 186.869 351.377 186.989 L 351.377 186.989 L 351.377 186.989 Q 352.277 186.629 353.657 185.009 L 353.657 185.009 L 353.657 185.009 Q 355.037 183.389 357.497 180.029 L 357.497 180.029 L 357.497 180.029 Q 358.097 179.189 358.907 178.109 L 358.907 178.109 L 358.907 178.109 Q 359.717 177.029 360.557 175.799 L 360.557 175.799 L 360.557 175.799 Q 361.397 174.569 362.147 173.249 L 362.147 173.249 L 362.147 173.249 Q 362.897 171.929 363.377 170.609 L 363.377 170.609 L 363.377 170.609 Q 363.617 169.889 364.007 168.899 L 364.007 168.899 L 364.007 168.899 Q 364.397 167.909 364.967 166.829 L 364.967 166.829 L 364.967 166.829 Q 365.537 165.749 366.287 164.639 L 366.287 164.639 L 366.287 164.639 Q 367.037 163.529 368.057 162.569 L 368.057 162.569 L 368.057 162.569 Q 368.837 162.569 369.737 162.749 L 369.737 162.749 L 369.737 162.749 Q 370.637 162.929 371.447 163.199 L 371.447 163.199 L 371.447 163.199 Q 372.257 163.469 372.857 163.799 L 372.857 163.799 L 372.857 163.799 Q 373.457 164.129 373.757 164.489 L 373.757 164.489 L 373.757 164.489 Q 372.677 167.129 371.357 169.709 L 371.357 169.709 L 371.357 169.709 Q 370.037 172.289 368.897 174.779 L 368.897 174.779 L 368.897 174.779 Q 367.757 177.269 366.977 179.729 L 366.977 179.729 L 366.977 179.729 Q 366.197 182.189 366.197 184.529 L 366.197 184.529 L 366.197 184.529 Q 366.197 185.789 366.407 186.719 L 366.407 186.719 L 366.407 186.719 Q 366.617 187.649 366.857 188.279 L 366.857 188.279 L 366.857 188.279 Q 367.097 188.909 367.307 189.329 L 367.307 189.329 L 367.307 189.329 Q 367.517 189.749 367.517 190.049 L 367.517 190.049 L 367.517 190.049 Q 367.517 190.109 367.397 190.229 L 367.397 190.229 L 367.397 190.229 Q 367.337 190.289 367.277 190.289 L 367.277 190.289 L 367.277 190.289 Q 366.857 190.289 366.197 190.109 L 366.197 190.109 L 366.197 190.109 Q 365.537 189.929 364.727 189.599 L 364.727 189.599 L 364.727 189.599 Q 363.917 189.269 363.107 188.849 L 363.107 188.849 L 363.107 188.849 Q 362.297 188.429 361.577 187.949 Z  M 373.457 188.069 L 373.457 188.069 L 373.457 188.069 Q 373.757 186.329 374.507 183.479 L 374.507 183.479 L 374.507 183.479 Q 375.257 180.629 376.277 177.419 L 376.277 177.419 L 376.277 177.419 Q 377.297 174.209 378.437 170.969 L 378.437 170.969 L 378.437 170.969 Q 379.577 167.729 380.657 165.149 L 380.657 165.149 L 380.657 165.149 Q 381.437 163.289 382.037 162.239 L 382.037 162.239 L 382.037 162.239 Q 382.637 161.189 383.357 160.469 L 383.357 160.469 L 383.357 160.469 Q 384.197 160.589 385.097 160.889 L 385.097 160.889 L 385.097 160.889 Q 385.997 161.189 386.837 161.609 L 386.837 161.609 L 386.837 161.609 Q 387.677 162.029 388.337 162.479 L 388.337 162.479 L 388.337 162.479 Q 388.997 162.929 389.357 163.349 L 389.357 163.349 L 389.357 163.349 Q 387.737 165.269 386.507 167.729 L 386.507 167.729 L 386.507 167.729 Q 385.277 170.189 384.017 174.029 L 384.017 174.029 L 384.017 174.029 Q 387.257 171.149 389.747 168.509 L 389.747 168.509 L 389.747 168.509 Q 392.237 165.869 394.397 162.629 L 394.397 162.629 L 394.397 162.629 Q 394.757 162.329 395.657 162.329 L 395.657 162.329 L 395.657 162.329 Q 396.497 162.329 397.277 162.599 L 397.277 162.599 L 397.277 162.599 Q 398.057 162.869 398.357 163.349 L 398.357 163.349 L 398.357 163.349 Q 397.277 166.229 397.277 169.049 L 397.277 169.049 L 397.277 169.049 Q 397.277 171.689 398.057 173.009 L 398.057 173.009 L 398.057 173.009 Q 397.997 173.369 397.247 174.389 L 397.247 174.389 L 397.247 174.389 Q 396.497 175.409 395.597 176.309 L 395.597 176.309 L 395.597 176.309 Q 393.977 175.469 392.717 173.999 L 392.717 173.999 L 392.717 173.999 Q 391.457 172.529 390.857 170.789 L 390.857 170.789 L 390.857 170.789 Q 388.037 172.769 386.057 174.659 L 386.057 174.659 L 386.057 174.659 Q 384.077 176.549 382.667 178.859 L 382.667 178.859 L 382.667 178.859 Q 381.257 181.169 380.267 184.169 L 380.267 184.169 L 380.267 184.169 Q 379.277 187.169 378.377 191.309 L 378.377 191.309 L 378.377 191.309 Q 377.837 191.249 377.087 190.919 L 377.087 190.919 L 377.087 190.919 Q 376.337 190.589 375.587 190.109 L 375.587 190.109 L 375.587 190.109 Q 374.837 189.629 374.237 189.089 L 374.237 189.089 L 374.237 189.089 Q 373.637 188.549 373.457 188.069 Z  M 419.777 165.029 L 419.777 165.029 L 419.777 165.029 Q 420.377 165.029 421.187 165.239 L 421.187 165.239 L 421.187 165.239 Q 421.997 165.449 422.657 165.779 L 422.657 165.779 L 422.657 165.779 Q 423.317 166.109 423.767 166.469 L 423.767 166.469 L 423.767 166.469 Q 424.217 166.829 424.217 167.129 L 424.217 167.129 L 424.217 167.129 Q 423.017 169.649 421.997 172.199 L 421.997 172.199 L 421.997 172.199 Q 420.977 174.749 420.257 177.089 L 420.257 177.089 L 420.257 177.089 Q 419.537 179.429 419.147 181.469 L 419.147 181.469 L 419.147 181.469 Q 418.757 183.509 418.757 185.009 L 418.757 185.009 L 418.757 185.009 Q 418.757 186.689 419.117 187.799 L 419.117 187.799 L 419.117 187.799 Q 419.477 188.909 420.317 189.389 L 420.317 189.389 L 420.317 189.389 Q 419.597 189.869 418.457 190.169 L 418.457 190.169 L 418.457 190.169 Q 417.317 190.469 416.417 190.469 L 416.417 190.469 L 416.417 190.469 Q 413.177 190.469 413.177 186.029 L 413.177 186.029 L 413.177 186.029 Q 413.177 182.609 415.457 176.669 L 415.457 176.669 L 415.457 176.669 Q 414.257 179.417 412.697 181.836 L 412.697 181.836 L 412.697 181.836 Q 411.137 184.256 409.517 186.108 L 409.517 186.108 L 409.517 186.108 Q 407.897 187.96 406.247 189.125 L 406.247 189.125 L 406.247 189.125 Q 404.597 190.29 403.217 190.529 L 403.217 190.529 L 403.217 190.529 Q 400.997 190.529 399.617 188.51 L 399.617 188.51 L 399.617 188.51 Q 398.237 186.492 398.237 183.359 L 398.237 183.359 L 398.237 183.359 Q 398.237 179.985 399.677 176.249 L 399.677 176.249 L 399.677 176.249 Q 401.117 172.513 403.367 169.32 L 403.367 169.32 L 403.367 169.32 Q 405.617 166.127 408.257 163.988 L 408.257 163.988 L 408.257 163.988 Q 410.897 161.849 413.357 161.849 L 413.357 161.849 L 413.357 161.849 Q 413.957 162.028 414.707 162.567 L 414.707 162.567 L 414.707 162.567 Q 415.457 163.106 416.147 163.824 L 416.147 163.824 L 416.147 163.824 Q 416.837 164.542 417.317 165.291 L 417.317 165.291 L 417.317 165.291 Q 417.797 166.039 417.857 166.577 L 417.857 166.577 L 417.857 166.577 Q 415.457 166.937 412.907 168.912 L 412.907 168.912 L 412.907 168.912 Q 410.357 170.887 408.287 173.671 L 408.287 173.671 L 408.287 173.671 Q 406.217 176.454 404.897 179.626 L 404.897 179.626 L 404.897 179.626 Q 403.577 182.799 403.577 185.552 L 403.577 185.552 L 403.577 185.552 Q 403.577 186.689 404.417 186.989 L 404.417 186.989 L 404.417 186.989 Q 406.157 186.629 408.437 184.019 L 408.437 184.019 L 408.437 184.019 Q 410.717 181.409 413.957 175.949 L 413.957 175.949 L 413.957 175.949 Q 414.557 174.869 415.307 173.549 L 415.307 173.549 L 415.307 173.549 Q 416.057 172.229 416.837 170.789 L 416.837 170.789 L 416.837 170.789 Q 417.617 169.349 418.367 167.879 L 418.367 167.879 L 418.367 167.879 Q 419.117 166.409 419.777 165.029 Z " fill="rgb(255,145,77)"/></g><defs><filter id="UJttOenjHCjvnUC1jMUKbvobFxX8Lrcx" x="-200%" y="-200%" width="400%" height="400%" filterUnits="objectBoundingBox" color-interpolation-filters="sRGB"><feGaussianBlur xmlns="http://www.w3.org/2000/svg" in="SourceGraphic" stdDeviation="2.146804531419514"/><feOffset xmlns="http://www.w3.org/2000/svg" dx="0" dy="0" result="pf_100_offsetBlur"/><feFlood xmlns="http://www.w3.org/2000/svg" flood-color="#007F47" flood-opacity="0.65"/><feComposite xmlns="http://www.w3.org/2000/svg" in2="pf_100_offsetBlur" operator="in" result="pf_100_dropShadow"/><feBlend xmlns="http://www.w3.org/2000/svg" in="SourceGraphic" in2="pf_100_dropShadow" mode="normal"/></filter></defs><g filter="url(#UJttOenjHCjvnUC1jMUKbvobFxX8Lrcx)"><path d=" M 389.48 207.065 L 389.804 207.137 L 385.43 218.009 L 385.43 218.009 Q 385.358 218.189 385.232 218.279 L 385.232 218.279 L 385.232 218.279 Q 385.106 218.369 384.944 218.369 L 384.944 218.369 L 384.944 218.369 Q 384.692 218.369 384.566 218.234 L 384.566 218.234 L 384.566 218.234 Q 384.44 218.099 384.422 217.901 L 384.422 217.901 L 384.422 217.901 Q 384.404 217.811 384.44 217.685 L 384.44 217.685 L 389.192 206.057 L 389.192 206.057 Q 389.282 205.859 389.417 205.778 L 389.417 205.778 L 389.417 205.778 Q 389.552 205.697 389.732 205.697 L 389.732 205.697 L 389.732 205.697 Q 389.912 205.697 390.047 205.796 L 390.047 205.796 L 390.047 205.796 Q 390.182 205.895 390.254 206.057 L 390.254 206.057 L 394.988 217.631 L 394.988 217.631 Q 395.024 217.739 395.024 217.847 L 395.024 217.847 L 395.024 217.847 Q 395.024 218.099 394.862 218.234 L 394.862 218.234 L 394.862 218.234 Q 394.7 218.369 394.484 218.369 L 394.484 218.369 L 394.484 218.369 Q 394.304 218.369 394.169 218.27 L 394.169 218.27 L 394.169 218.27 Q 394.034 218.171 393.962 218.009 L 393.962 218.009 L 389.48 207.065 Z  M 392.72 214.715 L 386.474 214.715 L 386.924 213.653 L 392.504 213.653 L 392.72 214.715 Z  M 401.306 208.937 L 401.306 208.937 L 401.306 208.937 Q 402.494 208.937 403.205 209.414 L 403.205 209.414 L 403.205 209.414 Q 403.916 209.891 404.231 210.71 L 404.231 210.71 L 404.231 210.71 Q 404.546 211.529 404.546 212.519 L 404.546 212.519 L 404.546 217.811 L 404.546 217.811 Q 404.546 218.027 404.384 218.189 L 404.384 218.189 L 404.384 218.189 Q 404.222 218.351 404.006 218.351 L 404.006 218.351 L 404.006 218.351 Q 403.754 218.351 403.61 218.189 L 403.61 218.189 L 403.61 218.189 Q 403.466 218.027 403.466 217.811 L 403.466 217.811 L 403.466 212.573 L 403.466 212.573 Q 403.466 211.853 403.232 211.259 L 403.232 211.259 L 403.232 211.259 Q 402.998 210.665 402.467 210.305 L 402.467 210.305 L 402.467 210.305 Q 401.936 209.945 401.072 209.945 L 401.072 209.945 L 401.072 209.945 Q 400.298 209.945 399.605 210.305 L 399.605 210.305 L 399.605 210.305 Q 398.912 210.665 398.48 211.259 L 398.48 211.259 L 398.48 211.259 Q 398.048 211.853 398.048 212.573 L 398.048 212.573 L 398.048 217.811 L 398.048 217.811 Q 398.048 218.027 397.886 218.189 L 397.886 218.189 L 397.886 218.189 Q 397.724 218.351 397.508 218.351 L 397.508 218.351 L 397.508 218.351 Q 397.256 218.351 397.112 218.189 L 397.112 218.189 L 397.112 218.189 Q 396.968 218.027 396.968 217.811 L 396.968 217.811 L 396.968 209.747 L 396.968 209.747 Q 396.968 209.531 397.121 209.369 L 397.121 209.369 L 397.121 209.369 Q 397.274 209.207 397.508 209.207 L 397.508 209.207 L 397.508 209.207 Q 397.742 209.207 397.895 209.369 L 397.895 209.369 L 397.895 209.369 Q 398.048 209.531 398.048 209.747 L 398.048 209.747 L 398.048 211.259 L 397.634 211.907 L 397.634 211.907 Q 397.67 211.331 398.003 210.8 L 398.003 210.8 L 398.003 210.8 Q 398.336 210.269 398.858 209.846 L 398.858 209.846 L 398.858 209.846 Q 399.38 209.423 400.019 209.18 L 400.019 209.18 L 400.019 209.18 Q 400.658 208.937 401.306 208.937 Z  M 414.842 205.031 L 414.842 205.031 L 414.842 205.031 Q 415.076 205.031 415.229 205.184 L 415.229 205.184 L 415.229 205.184 Q 415.382 205.337 415.382 205.571 L 415.382 205.571 L 415.382 217.811 L 415.382 217.811 Q 415.382 218.027 415.22 218.189 L 415.22 218.189 L 415.22 218.189 Q 415.058 218.351 414.842 218.351 L 414.842 218.351 L 414.842 218.351 Q 414.59 218.351 414.446 218.189 L 414.446 218.189 L 414.446 218.189 Q 414.302 218.027 414.302 217.811 L 414.302 217.811 L 414.302 215.669 L 414.608 215.417 L 414.608 215.417 Q 414.608 215.921 414.338 216.47 L 414.338 216.47 L 414.338 216.47 Q 414.068 217.019 413.573 217.487 L 413.573 217.487 L 413.573 217.487 Q 413.078 217.955 412.421 218.243 L 412.421 218.243 L 412.421 218.243 Q 411.764 218.531 410.99 218.531 L 410.99 218.531 L 410.99 218.531 Q 409.802 218.531 408.839 217.901 L 408.839 217.901 L 408.839 217.901 Q 407.876 217.271 407.318 216.191 L 407.318 216.191 L 407.318 216.191 Q 406.76 215.111 406.76 213.725 L 406.76 213.725 L 406.76 213.725 Q 406.76 212.357 407.318 211.268 L 407.318 211.268 L 407.318 211.268 Q 407.876 210.179 408.83 209.558 L 408.83 209.558 L 408.83 209.558 Q 409.784 208.937 410.972 208.937 L 410.972 208.937 L 410.972 208.937 Q 411.728 208.937 412.394 209.207 L 412.394 209.207 L 412.394 209.207 Q 413.06 209.477 413.573 209.945 L 413.573 209.945 L 413.573 209.945 Q 414.086 210.413 414.383 211.016 L 414.383 211.016 L 414.383 211.016 Q 414.68 211.619 414.68 212.267 L 414.68 212.267 L 414.302 211.997 L 414.302 205.571 L 414.302 205.571 Q 414.302 205.355 414.446 205.193 L 414.446 205.193 L 414.446 205.193 Q 414.59 205.031 414.842 205.031 Z  M 411.098 217.523 L 411.098 217.523 L 411.098 217.523 Q 412.052 217.523 412.79 217.028 L 412.79 217.028 L 412.79 217.028 Q 413.528 216.533 413.951 215.678 L 413.951 215.678 L 413.951 215.678 Q 414.374 214.823 414.374 213.725 L 414.374 213.725 L 414.374 213.725 Q 414.374 212.645 413.951 211.79 L 413.951 211.79 L 413.951 211.79 Q 413.528 210.935 412.79 210.44 L 412.79 210.44 L 412.79 210.44 Q 412.052 209.945 411.098 209.945 L 411.098 209.945 L 411.098 209.945 Q 410.162 209.945 409.415 210.44 L 409.415 210.44 L 409.415 210.44 Q 408.668 210.935 408.245 211.79 L 408.245 211.79 L 408.245 211.79 Q 407.822 212.645 407.822 213.725 L 407.822 213.725 L 407.822 213.725 Q 407.822 214.805 408.245 215.669 L 408.245 215.669 L 408.245 215.669 Q 408.668 216.533 409.415 217.028 L 409.415 217.028 L 409.415 217.028 Q 410.162 217.523 411.098 217.523 Z  M 422.294 218.531 L 422.294 218.531 L 422.294 218.531 Q 420.908 218.531 419.846 217.937 L 419.846 217.937 L 419.846 217.937 Q 418.784 217.343 418.19 216.281 L 418.19 216.281 L 418.19 216.281 Q 417.596 215.219 417.596 213.797 L 417.596 213.797 L 417.596 213.797 Q 417.596 212.267 418.199 211.187 L 418.199 211.187 L 418.199 211.187 Q 418.802 210.107 419.765 209.522 L 419.765 209.522 L 419.765 209.522 Q 420.728 208.937 421.808 208.937 L 421.808 208.937 L 421.808 208.937 Q 422.6 208.937 423.347 209.216 L 423.347 209.216 L 423.347 209.216 Q 424.094 209.495 424.67 210.044 L 424.67 210.044 L 424.67 210.044 Q 425.246 210.593 425.606 211.385 L 425.606 211.385 L 425.606 211.385 Q 425.966 212.177 425.984 213.221 L 425.984 213.221 L 425.984 213.221 Q 425.984 213.437 425.822 213.59 L 425.822 213.59 L 425.822 213.59 Q 425.66 213.743 425.444 213.743 L 425.444 213.743 L 418.226 213.743 L 418.01 212.771 L 425.102 212.771 L 424.868 212.987 L 424.868 212.627 L 424.868 212.627 Q 424.778 211.781 424.31 211.187 L 424.31 211.187 L 424.31 211.187 Q 423.842 210.593 423.185 210.287 L 423.185 210.287 L 423.185 210.287 Q 422.528 209.981 421.808 209.981 L 421.808 209.981 L 421.808 209.981 Q 421.268 209.981 420.701 210.197 L 420.701 210.197 L 420.701 210.197 Q 420.134 210.413 419.675 210.872 L 419.675 210.872 L 419.675 210.872 Q 419.216 211.331 418.928 212.042 L 418.928 212.042 L 418.928 212.042 Q 418.64 212.753 418.64 213.725 L 418.64 213.725 L 418.64 213.725 Q 418.64 214.787 419.072 215.651 L 419.072 215.651 L 419.072 215.651 Q 419.504 216.515 420.314 217.019 L 420.314 217.019 L 420.314 217.019 Q 421.124 217.523 422.276 217.523 L 422.276 217.523 L 422.276 217.523 Q 422.888 217.523 423.392 217.343 L 423.392 217.343 L 423.392 217.343 Q 423.896 217.163 424.283 216.866 L 424.283 216.866 L 424.283 216.866 Q 424.67 216.569 424.922 216.245 L 424.922 216.245 L 424.922 216.245 Q 425.12 216.083 425.3 216.083 L 425.3 216.083 L 425.3 216.083 Q 425.498 216.083 425.633 216.227 L 425.633 216.227 L 425.633 216.227 Q 425.768 216.371 425.768 216.551 L 425.768 216.551 L 425.768 216.551 Q 425.768 216.767 425.588 216.929 L 425.588 216.929 L 425.588 216.929 Q 425.048 217.577 424.184 218.054 L 424.184 218.054 L 424.184 218.054 Q 423.32 218.531 422.294 218.531 Z  M 427.694 216.893 L 427.694 216.893 L 427.694 216.893 Q 427.55 216.677 427.559 216.47 L 427.559 216.47 L 427.559 216.47 Q 427.568 216.263 427.784 216.137 L 427.784 216.137 L 427.784 216.137 Q 427.928 216.011 428.117 216.029 L 428.117 216.029 L 428.117 216.029 Q 428.306 216.047 428.468 216.209 L 428.468 216.209 L 428.468 216.209 Q 428.954 216.839 429.647 217.226 L 429.647 217.226 L 429.647 217.226 Q 430.34 217.613 431.294 217.613 L 431.294 217.613 L 431.294 217.613 Q 431.798 217.613 432.293 217.442 L 432.293 217.442 L 432.293 217.442 Q 432.788 217.271 433.112 216.92 L 433.112 216.92 L 433.112 216.92 Q 433.436 216.569 433.436 216.029 L 433.436 216.029 L 433.436 216.029 Q 433.436 215.471 433.112 215.129 L 433.112 215.129 L 433.112 215.129 Q 432.788 214.787 432.275 214.589 L 432.275 214.589 L 432.275 214.589 Q 431.762 214.391 431.186 214.247 L 431.186 214.247 L 431.186 214.247 Q 430.574 214.085 429.998 213.878 L 429.998 213.878 L 429.998 213.878 Q 429.422 213.671 428.981 213.356 L 428.981 213.356 L 428.981 213.356 Q 428.54 213.041 428.27 212.591 L 428.27 212.591 L 428.27 212.591 Q 428 212.141 428 211.493 L 428 211.493 L 428 211.493 Q 428 210.737 428.414 210.161 L 428.414 210.161 L 428.414 210.161 Q 428.828 209.585 429.539 209.261 L 429.539 209.261 L 429.539 209.261 Q 430.25 208.937 431.15 208.937 L 431.15 208.937 L 431.15 208.937 Q 431.6 208.937 432.122 209.054 L 432.122 209.054 L 432.122 209.054 Q 432.644 209.171 433.148 209.441 L 433.148 209.441 L 433.148 209.441 Q 433.652 209.711 434.048 210.179 L 434.048 210.179 L 434.048 210.179 Q 434.21 210.341 434.21 210.548 L 434.21 210.548 L 434.21 210.548 Q 434.21 210.755 434.03 210.917 L 434.03 210.917 L 434.03 210.917 Q 433.886 211.025 433.697 211.025 L 433.697 211.025 L 433.697 211.025 Q 433.508 211.025 433.382 210.881 L 433.382 210.881 L 433.382 210.881 Q 432.95 210.395 432.356 210.143 L 432.356 210.143 L 432.356 210.143 Q 431.762 209.891 431.078 209.891 L 431.078 209.891 L 431.078 209.891 Q 430.556 209.891 430.097 210.062 L 430.097 210.062 L 430.097 210.062 Q 429.638 210.233 429.332 210.575 L 429.332 210.575 L 429.332 210.575 Q 429.026 210.917 429.026 211.475 L 429.026 211.475 L 429.026 211.475 Q 429.062 211.997 429.395 212.321 L 429.395 212.321 L 429.395 212.321 Q 429.728 212.645 430.277 212.861 L 430.277 212.861 L 430.277 212.861 Q 430.826 213.077 431.51 213.257 L 431.51 213.257 L 431.51 213.257 Q 432.086 213.401 432.617 213.599 L 432.617 213.599 L 432.617 213.599 Q 433.148 213.797 433.553 214.094 L 433.553 214.094 L 433.553 214.094 Q 433.958 214.391 434.201 214.841 L 434.201 214.841 L 434.201 214.841 Q 434.444 215.291 434.444 215.975 L 434.444 215.975 L 434.444 215.975 Q 434.444 216.767 434.003 217.343 L 434.003 217.343 L 434.003 217.343 Q 433.562 217.919 432.824 218.225 L 432.824 218.225 L 432.824 218.225 Q 432.086 218.531 431.186 218.531 L 431.186 218.531 L 431.186 218.531 Q 430.214 218.531 429.305 218.153 L 429.305 218.153 L 429.305 218.153 Q 428.396 217.775 427.694 216.893 Z  M 358.484 205.571 L 358.484 217.811 L 358.484 217.811 Q 358.484 218.027 358.322 218.189 L 358.322 218.189 L 358.322 218.189 Q 358.16 218.351 357.944 218.351 L 357.944 218.351 L 357.944 218.351 Q 357.71 218.351 357.557 218.189 L 357.557 218.189 L 357.557 218.189 Q 357.404 218.027 357.404 217.811 L 357.404 217.811 L 357.404 205.571 L 357.404 205.571 Q 357.404 205.355 357.566 205.193 L 357.566 205.193 L 357.566 205.193 Q 357.728 205.031 357.944 205.031 L 357.944 205.031 L 357.944 205.031 Q 358.178 205.031 358.331 205.193 L 358.331 205.193 L 358.331 205.193 Q 358.484 205.355 358.484 205.571 L 358.484 205.571 Z  M 369.752 213.743 L 369.752 213.743 L 369.752 213.743 Q 369.752 215.111 369.149 216.2 L 369.149 216.2 L 369.149 216.2 Q 368.546 217.289 367.52 217.91 L 367.52 217.91 L 367.52 217.91 Q 366.494 218.531 365.198 218.531 L 365.198 218.531 L 365.198 218.531 Q 363.92 218.531 362.885 217.91 L 362.885 217.91 L 362.885 217.91 Q 361.85 217.289 361.247 216.2 L 361.247 216.2 L 361.247 216.2 Q 360.644 215.111 360.644 213.743 L 360.644 213.743 L 360.644 213.743 Q 360.644 212.357 361.247 211.277 L 361.247 211.277 L 361.247 211.277 Q 361.85 210.197 362.885 209.567 L 362.885 209.567 L 362.885 209.567 Q 363.92 208.937 365.198 208.937 L 365.198 208.937 L 365.198 208.937 Q 366.494 208.937 367.52 209.567 L 367.52 209.567 L 367.52 209.567 Q 368.546 210.197 369.149 211.277 L 369.149 211.277 L 369.149 211.277 Q 369.752 212.357 369.752 213.743 Z  M 368.672 213.743 L 368.672 213.743 L 368.672 213.743 Q 368.672 212.645 368.222 211.79 L 368.222 211.79 L 368.222 211.79 Q 367.772 210.935 366.989 210.44 L 366.989 210.44 L 366.989 210.44 Q 366.206 209.945 365.198 209.945 L 365.198 209.945 L 365.198 209.945 Q 364.208 209.945 363.425 210.44 L 363.425 210.44 L 363.425 210.44 Q 362.642 210.935 362.183 211.79 L 362.183 211.79 L 362.183 211.79 Q 361.724 212.645 361.724 213.743 L 361.724 213.743 L 361.724 213.743 Q 361.724 214.841 362.183 215.687 L 362.183 215.687 L 362.183 215.687 Q 362.642 216.533 363.425 217.028 L 363.425 217.028 L 363.425 217.028 Q 364.208 217.523 365.198 217.523 L 365.198 217.523 L 365.198 217.523 Q 366.206 217.523 366.989 217.028 L 366.989 217.028 L 366.989 217.028 Q 367.772 216.533 368.222 215.687 L 368.222 215.687 L 368.222 215.687 Q 368.672 214.841 368.672 213.743 Z  M 371.444 216.893 L 371.444 216.893 L 371.444 216.893 Q 371.3 216.677 371.309 216.47 L 371.309 216.47 L 371.309 216.47 Q 371.318 216.263 371.534 216.137 L 371.534 216.137 L 371.534 216.137 Q 371.678 216.011 371.867 216.029 L 371.867 216.029 L 371.867 216.029 Q 372.056 216.047 372.218 216.209 L 372.218 216.209 L 372.218 216.209 Q 372.704 216.839 373.397 217.226 L 373.397 217.226 L 373.397 217.226 Q 374.09 217.613 375.044 217.613 L 375.044 217.613 L 375.044 217.613 Q 375.548 217.613 376.043 217.442 L 376.043 217.442 L 376.043 217.442 Q 376.538 217.271 376.862 216.92 L 376.862 216.92 L 376.862 216.92 Q 377.186 216.569 377.186 216.029 L 377.186 216.029 L 377.186 216.029 Q 377.186 215.471 376.862 215.129 L 376.862 215.129 L 376.862 215.129 Q 376.538 214.787 376.025 214.589 L 376.025 214.589 L 376.025 214.589 Q 375.512 214.391 374.936 214.247 L 374.936 214.247 L 374.936 214.247 Q 374.324 214.085 373.748 213.878 L 373.748 213.878 L 373.748 213.878 Q 373.172 213.671 372.731 213.356 L 372.731 213.356 L 372.731 213.356 Q 372.29 213.041 372.02 212.591 L 372.02 212.591 L 372.02 212.591 Q 371.75 212.141 371.75 211.493 L 371.75 211.493 L 371.75 211.493 Q 371.75 210.737 372.164 210.161 L 372.164 210.161 L 372.164 210.161 Q 372.578 209.585 373.289 209.261 L 373.289 209.261 L 373.289 209.261 Q 374 208.937 374.9 208.937 L 374.9 208.937 L 374.9 208.937 Q 375.35 208.937 375.872 209.054 L 375.872 209.054 L 375.872 209.054 Q 376.394 209.171 376.898 209.441 L 376.898 209.441 L 376.898 209.441 Q 377.402 209.711 377.798 210.179 L 377.798 210.179 L 377.798 210.179 Q 377.96 210.341 377.96 210.548 L 377.96 210.548 L 377.96 210.548 Q 377.96 210.755 377.78 210.917 L 377.78 210.917 L 377.78 210.917 Q 377.636 211.025 377.447 211.025 L 377.447 211.025 L 377.447 211.025 Q 377.258 211.025 377.132 210.881 L 377.132 210.881 L 377.132 210.881 Q 376.7 210.395 376.106 210.143 L 376.106 210.143 L 376.106 210.143 Q 375.512 209.891 374.828 209.891 L 374.828 209.891 L 374.828 209.891 Q 374.306 209.891 373.847 210.062 L 373.847 210.062 L 373.847 210.062 Q 373.388 210.233 373.082 210.575 L 373.082 210.575 L 373.082 210.575 Q 372.776 210.917 372.776 211.475 L 372.776 211.475 L 372.776 211.475 Q 372.812 211.997 373.145 212.321 L 373.145 212.321 L 373.145 212.321 Q 373.478 212.645 374.027 212.861 L 374.027 212.861 L 374.027 212.861 Q 374.576 213.077 375.26 213.257 L 375.26 213.257 L 375.26 213.257 Q 375.836 213.401 376.367 213.599 L 376.367 213.599 L 376.367 213.599 Q 376.898 213.797 377.303 214.094 L 377.303 214.094 L 377.303 214.094 Q 377.708 214.391 377.951 214.841 L 377.951 214.841 L 377.951 214.841 Q 378.194 215.291 378.194 215.975 L 378.194 215.975 L 378.194 215.975 Q 378.194 216.767 377.753 217.343 L 377.753 217.343 L 377.753 217.343 Q 377.312 217.919 376.574 218.225 L 376.574 218.225 L 376.574 218.225 Q 375.836 218.531 374.936 218.531 L 374.936 218.531 L 374.936 218.531 Q 373.964 218.531 373.055 218.153 L 373.055 218.153 L 373.055 218.153 Q 372.146 217.775 371.444 216.893 Z  M 339.008 205.031 L 339.008 205.031 L 339.008 205.031 Q 339.242 205.031 339.395 205.184 L 339.395 205.184 L 339.395 205.184 Q 339.548 205.337 339.548 205.571 L 339.548 205.571 L 339.548 217.811 L 339.548 217.811 Q 339.548 218.027 339.386 218.189 L 339.386 218.189 L 339.386 218.189 Q 339.224 218.351 339.008 218.351 L 339.008 218.351 L 339.008 218.351 Q 338.756 218.351 338.612 218.189 L 338.612 218.189 L 338.612 218.189 Q 338.468 218.027 338.468 217.811 L 338.468 217.811 L 338.468 215.669 L 338.774 215.417 L 338.774 215.417 Q 338.774 215.921 338.504 216.47 L 338.504 216.47 L 338.504 216.47 Q 338.234 217.019 337.739 217.487 L 337.739 217.487 L 337.739 217.487 Q 337.244 217.955 336.587 218.243 L 336.587 218.243 L 336.587 218.243 Q 335.93 218.531 335.156 218.531 L 335.156 218.531 L 335.156 218.531 Q 333.968 218.531 333.005 217.901 L 333.005 217.901 L 333.005 217.901 Q 332.042 217.271 331.484 216.191 L 331.484 216.191 L 331.484 216.191 Q 330.926 215.111 330.926 213.725 L 330.926 213.725 L 330.926 213.725 Q 330.926 212.357 331.484 211.268 L 331.484 211.268 L 331.484 211.268 Q 332.042 210.179 332.996 209.558 L 332.996 209.558 L 332.996 209.558 Q 333.95 208.937 335.138 208.937 L 335.138 208.937 L 335.138 208.937 Q 335.894 208.937 336.56 209.207 L 336.56 209.207 L 336.56 209.207 Q 337.226 209.477 337.739 209.945 L 337.739 209.945 L 337.739 209.945 Q 338.252 210.413 338.549 211.016 L 338.549 211.016 L 338.549 211.016 Q 338.846 211.619 338.846 212.267 L 338.846 212.267 L 338.468 211.997 L 338.468 205.571 L 338.468 205.571 Q 338.468 205.355 338.612 205.193 L 338.612 205.193 L 338.612 205.193 Q 338.756 205.031 339.008 205.031 Z  M 335.264 217.523 L 335.264 217.523 L 335.264 217.523 Q 336.218 217.523 336.956 217.028 L 336.956 217.028 L 336.956 217.028 Q 337.694 216.533 338.117 215.678 L 338.117 215.678 L 338.117 215.678 Q 338.54 214.823 338.54 213.725 L 338.54 213.725 L 338.54 213.725 Q 338.54 212.645 338.117 211.79 L 338.117 211.79 L 338.117 211.79 Q 337.694 210.935 336.956 210.44 L 336.956 210.44 L 336.956 210.44 Q 336.218 209.945 335.264 209.945 L 335.264 209.945 L 335.264 209.945 Q 334.328 209.945 333.581 210.44 L 333.581 210.44 L 333.581 210.44 Q 332.834 210.935 332.411 211.79 L 332.411 211.79 L 332.411 211.79 Q 331.988 212.645 331.988 213.725 L 331.988 213.725 L 331.988 213.725 Q 331.988 214.805 332.411 215.669 L 332.411 215.669 L 332.411 215.669 Q 332.834 216.533 333.581 217.028 L 333.581 217.028 L 333.581 217.028 Q 334.328 217.523 335.264 217.523 Z  M 346.46 218.531 L 346.46 218.531 L 346.46 218.531 Q 345.074 218.531 344.012 217.937 L 344.012 217.937 L 344.012 217.937 Q 342.95 217.343 342.356 216.281 L 342.356 216.281 L 342.356 216.281 Q 341.762 215.219 341.762 213.797 L 341.762 213.797 L 341.762 213.797 Q 341.762 212.267 342.365 211.187 L 342.365 211.187 L 342.365 211.187 Q 342.968 210.107 343.931 209.522 L 343.931 209.522 L 343.931 209.522 Q 344.894 208.937 345.974 208.937 L 345.974 208.937 L 345.974 208.937 Q 346.766 208.937 347.513 209.216 L 347.513 209.216 L 347.513 209.216 Q 348.26 209.495 348.836 210.044 L 348.836 210.044 L 348.836 210.044 Q 349.412 210.593 349.772 211.385 L 349.772 211.385 L 349.772 211.385 Q 350.132 212.177 350.15 213.221 L 350.15 213.221 L 350.15 213.221 Q 350.15 213.437 349.988 213.59 L 349.988 213.59 L 349.988 213.59 Q 349.826 213.743 349.61 213.743 L 349.61 213.743 L 342.392 213.743 L 342.176 212.771 L 349.268 212.771 L 349.034 212.987 L 349.034 212.627 L 349.034 212.627 Q 348.944 211.781 348.476 211.187 L 348.476 211.187 L 348.476 211.187 Q 348.008 210.593 347.351 210.287 L 347.351 210.287 L 347.351 210.287 Q 346.694 209.981 345.974 209.981 L 345.974 209.981 L 345.974 209.981 Q 345.434 209.981 344.867 210.197 L 344.867 210.197 L 344.867 210.197 Q 344.3 210.413 343.841 210.872 L 343.841 210.872 L 343.841 210.872 Q 343.382 211.331 343.094 212.042 L 343.094 212.042 L 343.094 212.042 Q 342.806 212.753 342.806 213.725 L 342.806 213.725 L 342.806 213.725 Q 342.806 214.787 343.238 215.651 L 343.238 215.651 L 343.238 215.651 Q 343.67 216.515 344.48 217.019 L 344.48 217.019 L 344.48 217.019 Q 345.29 217.523 346.442 217.523 L 346.442 217.523 L 346.442 217.523 Q 347.054 217.523 347.558 217.343 L 347.558 217.343 L 347.558 217.343 Q 348.062 217.163 348.449 216.866 L 348.449 216.866 L 348.449 216.866 Q 348.836 216.569 349.088 216.245 L 349.088 216.245 L 349.088 216.245 Q 349.286 216.083 349.466 216.083 L 349.466 216.083 L 349.466 216.083 Q 349.664 216.083 349.799 216.227 L 349.799 216.227 L 349.799 216.227 Q 349.934 216.371 349.934 216.551 L 349.934 216.551 L 349.934 216.551 Q 349.934 216.767 349.754 216.929 L 349.754 216.929 L 349.754 216.929 Q 349.214 217.577 348.35 218.054 L 348.35 218.054 L 348.35 218.054 Q 347.486 218.531 346.46 218.531 Z  M 274.424 205.751 L 274.424 205.751 L 274.424 205.751 Q 274.55 205.751 274.685 205.805 L 274.685 205.805 L 274.685 205.805 Q 274.82 205.859 274.91 205.985 L 274.91 205.985 L 279.878 213.437 L 279.392 213.419 L 284.378 205.985 L 284.378 205.985 Q 284.576 205.715 284.864 205.751 L 284.864 205.751 L 284.864 205.751 Q 285.08 205.751 285.233 205.904 L 285.233 205.904 L 285.233 205.904 Q 285.386 206.057 285.386 206.291 L 285.386 206.291 L 285.386 217.811 L 285.386 217.811 Q 285.386 218.027 285.224 218.189 L 285.224 218.189 L 285.224 218.189 Q 285.062 218.351 284.828 218.351 L 284.828 218.351 L 284.828 218.351 Q 284.576 218.351 284.414 218.189 L 284.414 218.189 L 284.414 218.189 Q 284.252 218.027 284.252 217.811 L 284.252 217.811 L 284.252 207.389 L 284.576 207.425 L 280.022 214.319 L 280.022 214.319 Q 279.968 214.427 279.86 214.49 L 279.86 214.49 L 279.86 214.49 Q 279.752 214.553 279.608 214.535 L 279.608 214.535 L 279.608 214.535 Q 279.482 214.553 279.365 214.49 L 279.365 214.49 L 279.365 214.49 Q 279.248 214.427 279.176 214.319 L 279.176 214.319 L 274.604 207.353 L 274.946 207.119 L 274.946 217.811 L 274.946 217.811 Q 274.946 218.027 274.793 218.189 L 274.793 218.189 L 274.793 218.189 Q 274.64 218.351 274.406 218.351 L 274.406 218.351 L 274.406 218.351 Q 274.172 218.351 274.028 218.189 L 274.028 218.189 L 274.028 218.189 Q 273.884 218.027 273.884 217.811 L 273.884 217.811 L 273.884 206.291 L 273.884 206.291 Q 273.884 206.075 274.037 205.913 L 274.037 205.913 L 274.037 205.913 Q 274.19 205.751 274.424 205.751 Z  M 295.97 209.153 L 295.97 209.153 L 295.97 209.153 Q 296.204 209.153 296.357 209.315 L 296.357 209.315 L 296.357 209.315 Q 296.51 209.477 296.51 209.711 L 296.51 209.711 L 296.51 217.811 L 296.51 217.811 Q 296.51 218.027 296.348 218.189 L 296.348 218.189 L 296.348 218.189 Q 296.186 218.351 295.97 218.351 L 295.97 218.351 L 295.97 218.351 Q 295.718 218.351 295.574 218.189 L 295.574 218.189 L 295.574 218.189 Q 295.43 218.027 295.43 217.811 L 295.43 217.811 L 295.43 215.669 L 295.736 215.525 L 295.736 215.525 Q 295.736 216.029 295.457 216.551 L 295.457 216.551 L 295.457 216.551 Q 295.178 217.073 294.692 217.523 L 294.692 217.523 L 294.692 217.523 Q 294.206 217.973 293.549 218.252 L 293.549 218.252 L 293.549 218.252 Q 292.892 218.531 292.118 218.531 L 292.118 218.531 L 292.118 218.531 Q 290.912 218.531 289.949 217.901 L 289.949 217.901 L 289.949 217.901 Q 288.986 217.271 288.437 216.173 L 288.437 216.173 L 288.437 216.173 Q 287.888 215.075 287.888 213.707 L 287.888 213.707 L 287.888 213.707 Q 287.888 212.303 288.446 211.232 L 288.446 211.232 L 288.446 211.232 Q 289.004 210.161 289.958 209.549 L 289.958 209.549 L 289.958 209.549 Q 290.912 208.937 292.1 208.937 L 292.1 208.937 L 292.1 208.937 Q 292.874 208.937 293.549 209.207 L 293.549 209.207 L 293.549 209.207 Q 294.224 209.477 294.728 209.945 L 294.728 209.945 L 294.728 209.945 Q 295.232 210.413 295.52 211.016 L 295.52 211.016 L 295.52 211.016 Q 295.808 211.619 295.808 212.267 L 295.808 212.267 L 295.43 211.997 L 295.43 209.711 L 295.43 209.711 Q 295.43 209.477 295.574 209.315 L 295.574 209.315 L 295.574 209.315 Q 295.718 209.153 295.97 209.153 Z  M 292.226 217.523 L 292.226 217.523 L 292.226 217.523 Q 293.18 217.523 293.918 217.028 L 293.918 217.028 L 293.918 217.028 Q 294.656 216.533 295.079 215.66 L 295.079 215.66 L 295.079 215.66 Q 295.502 214.787 295.502 213.707 L 295.502 213.707 L 295.502 213.707 Q 295.502 212.645 295.079 211.799 L 295.079 211.799 L 295.079 211.799 Q 294.656 210.953 293.918 210.449 L 293.918 210.449 L 293.918 210.449 Q 293.18 209.945 292.226 209.945 L 292.226 209.945 L 292.226 209.945 Q 291.29 209.945 290.543 210.431 L 290.543 210.431 L 290.543 210.431 Q 289.796 210.917 289.373 211.763 L 289.373 211.763 L 289.373 211.763 Q 288.95 212.609 288.95 213.707 L 288.95 213.707 L 288.95 213.707 Q 288.95 214.787 289.364 215.66 L 289.364 215.66 L 289.364 215.66 Q 289.778 216.533 290.525 217.028 L 290.525 217.028 L 290.525 217.028 Q 291.272 217.523 292.226 217.523 Z  M 299.876 218.351 L 299.876 218.351 L 299.876 218.351 Q 299.624 218.351 299.48 218.189 L 299.48 218.189 L 299.48 218.189 Q 299.336 218.027 299.336 217.811 L 299.336 217.811 L 299.336 209.747 L 299.336 209.747 Q 299.336 209.531 299.489 209.369 L 299.489 209.369 L 299.489 209.369 Q 299.642 209.207 299.876 209.207 L 299.876 209.207 L 299.876 209.207 Q 300.11 209.207 300.263 209.369 L 300.263 209.369 L 300.263 209.369 Q 300.416 209.531 300.416 209.747 L 300.416 209.747 L 300.416 212.447 L 300.146 212.501 L 300.146 212.501 Q 300.2 211.871 300.461 211.25 L 300.461 211.25 L 300.461 211.25 Q 300.722 210.629 301.172 210.107 L 301.172 210.107 L 301.172 210.107 Q 301.622 209.585 302.243 209.261 L 302.243 209.261 L 302.243 209.261 Q 302.864 208.937 303.638 208.937 L 303.638 208.937 L 303.638 208.937 Q 303.962 208.937 304.268 209.072 L 304.268 209.072 L 304.268 209.072 Q 304.574 209.207 304.574 209.513 L 304.574 209.513 L 304.574 209.513 Q 304.574 209.783 304.43 209.927 L 304.43 209.927 L 304.43 209.927 Q 304.286 210.071 304.088 210.071 L 304.088 210.071 L 304.088 210.071 Q 303.926 210.071 303.737 209.981 L 303.737 209.981 L 303.737 209.981 Q 303.548 209.891 303.242 209.891 L 303.242 209.891 L 303.242 209.891 Q 302.738 209.891 302.234 210.188 L 302.234 210.188 L 302.234 210.188 Q 301.73 210.485 301.316 210.989 L 301.316 210.989 L 301.316 210.989 Q 300.902 211.493 300.659 212.114 L 300.659 212.114 L 300.659 212.114 Q 300.416 212.735 300.416 213.365 L 300.416 213.365 L 300.416 217.811 L 300.416 217.811 Q 300.416 218.027 300.254 218.189 L 300.254 218.189 L 300.254 218.189 Q 300.092 218.351 299.876 218.351 Z  M 305.672 209.189 L 305.672 209.189 L 309.866 209.189 L 309.866 209.189 Q 310.082 209.189 310.226 209.342 L 310.226 209.342 L 310.226 209.342 Q 310.37 209.495 310.37 209.711 L 310.37 209.711 L 310.37 209.711 Q 310.37 209.909 310.226 210.053 L 310.226 210.053 L 310.226 210.053 Q 310.082 210.197 309.866 210.197 L 309.866 210.197 L 305.672 210.197 L 305.672 210.197 Q 305.456 210.197 305.303 210.044 L 305.303 210.044 L 305.303 210.044 Q 305.15 209.891 305.15 209.693 L 305.15 209.693 L 305.15 209.693 Q 305.15 209.477 305.303 209.333 L 305.303 209.333 L 305.303 209.333 Q 305.456 209.189 305.672 209.189 Z  M 307.526 206.651 L 307.526 206.651 L 307.526 206.651 Q 307.76 206.651 307.913 206.813 L 307.913 206.813 L 307.913 206.813 Q 308.066 206.975 308.066 207.191 L 308.066 207.191 L 308.066 216.227 L 308.066 216.227 Q 308.066 216.731 308.201 216.983 L 308.201 216.983 L 308.201 216.983 Q 308.336 217.235 308.552 217.316 L 308.552 217.316 L 308.552 217.316 Q 308.768 217.397 308.984 217.397 L 308.984 217.397 L 308.984 217.397 Q 309.128 217.397 309.245 217.352 L 309.245 217.352 L 309.245 217.352 Q 309.362 217.307 309.506 217.307 L 309.506 217.307 L 309.506 217.307 Q 309.668 217.307 309.785 217.433 L 309.785 217.433 L 309.785 217.433 Q 309.902 217.559 309.902 217.757 L 309.902 217.757 L 309.902 217.757 Q 309.902 218.009 309.614 218.18 L 309.614 218.18 L 309.614 218.18 Q 309.326 218.351 308.93 218.351 L 308.93 218.351 L 308.93 218.351 Q 308.768 218.351 308.444 218.324 L 308.444 218.324 L 308.444 218.324 Q 308.12 218.297 307.778 218.126 L 307.778 218.126 L 307.778 218.126 Q 307.436 217.955 307.211 217.523 L 307.211 217.523 L 307.211 217.523 Q 306.986 217.091 306.986 216.281 L 306.986 216.281 L 306.986 207.191 L 306.986 207.191 Q 306.986 206.975 307.139 206.813 L 307.139 206.813 L 307.139 206.813 Q 307.292 206.651 307.526 206.651 Z  M 313.412 209.531 L 313.412 217.811 L 313.412 217.811 Q 313.412 218.027 313.25 218.189 L 313.25 218.189 L 313.25 218.189 Q 313.088 218.351 312.872 218.351 L 312.872 218.351 L 312.872 218.351 Q 312.638 218.351 312.485 218.189 L 312.485 218.189 L 312.485 218.189 Q 312.332 218.027 312.332 217.811 L 312.332 217.811 L 312.332 209.531 L 312.332 209.531 Q 312.332 209.315 312.485 209.153 L 312.485 209.153 L 312.485 209.153 Q 312.638 208.991 312.872 208.991 L 312.872 208.991 L 312.872 208.991 Q 313.106 208.991 313.259 209.153 L 313.259 209.153 L 313.259 209.153 Q 313.412 209.315 313.412 209.531 L 313.412 209.531 Z  M 312.872 207.785 L 312.872 207.785 L 312.872 207.785 Q 312.494 207.785 312.305 207.614 L 312.305 207.614 L 312.305 207.614 Q 312.116 207.443 312.116 207.119 L 312.116 207.119 L 312.116 206.939 L 312.116 206.939 Q 312.116 206.615 312.323 206.444 L 312.323 206.444 L 312.323 206.444 Q 312.53 206.273 312.89 206.273 L 312.89 206.273 L 312.89 206.273 Q 313.232 206.273 313.421 206.444 L 313.421 206.444 L 313.421 206.444 Q 313.61 206.615 313.61 206.939 L 313.61 206.939 L 313.61 207.119 L 313.61 207.119 Q 313.61 207.443 313.421 207.614 L 313.421 207.614 L 313.421 207.614 Q 313.232 207.785 312.872 207.785 Z  M 320.558 208.937 L 320.558 208.937 L 320.558 208.937 Q 321.746 208.937 322.457 209.414 L 322.457 209.414 L 322.457 209.414 Q 323.168 209.891 323.483 210.71 L 323.483 210.71 L 323.483 210.71 Q 323.798 211.529 323.798 212.519 L 323.798 212.519 L 323.798 217.811 L 323.798 217.811 Q 323.798 218.027 323.636 218.189 L 323.636 218.189 L 323.636 218.189 Q 323.474 218.351 323.258 218.351 L 323.258 218.351 L 323.258 218.351 Q 323.006 218.351 322.862 218.189 L 322.862 218.189 L 322.862 218.189 Q 322.718 218.027 322.718 217.811 L 322.718 217.811 L 322.718 212.573 L 322.718 212.573 Q 322.718 211.853 322.484 211.259 L 322.484 211.259 L 322.484 211.259 Q 322.25 210.665 321.719 210.305 L 321.719 210.305 L 321.719 210.305 Q 321.188 209.945 320.324 209.945 L 320.324 209.945 L 320.324 209.945 Q 319.55 209.945 318.857 210.305 L 318.857 210.305 L 318.857 210.305 Q 318.164 210.665 317.732 211.259 L 317.732 211.259 L 317.732 211.259 Q 317.3 211.853 317.3 212.573 L 317.3 212.573 L 317.3 217.811 L 317.3 217.811 Q 317.3 218.027 317.138 218.189 L 317.138 218.189 L 317.138 218.189 Q 316.976 218.351 316.76 218.351 L 316.76 218.351 L 316.76 218.351 Q 316.508 218.351 316.364 218.189 L 316.364 218.189 L 316.364 218.189 Q 316.22 218.027 316.22 217.811 L 316.22 217.811 L 316.22 209.747 L 316.22 209.747 Q 316.22 209.531 316.373 209.369 L 316.373 209.369 L 316.373 209.369 Q 316.526 209.207 316.76 209.207 L 316.76 209.207 L 316.76 209.207 Q 316.994 209.207 317.147 209.369 L 317.147 209.369 L 317.147 209.369 Q 317.3 209.531 317.3 209.747 L 317.3 209.747 L 317.3 211.259 L 316.886 211.907 L 316.886 211.907 Q 316.922 211.331 317.255 210.8 L 317.255 210.8 L 317.255 210.8 Q 317.588 210.269 318.11 209.846 L 318.11 209.846 L 318.11 209.846 Q 318.632 209.423 319.271 209.18 L 319.271 209.18 L 319.271 209.18 Q 319.91 208.937 320.558 208.937 Z  M 241.088 218.531 L 241.088 218.531 L 241.088 218.531 Q 239.72 218.549 238.712 218.099 L 238.712 218.099 L 238.712 218.099 Q 237.704 217.649 236.786 216.749 L 236.786 216.749 L 236.786 216.749 Q 236.696 216.677 236.633 216.569 L 236.633 216.569 L 236.633 216.569 Q 236.57 216.461 236.57 216.317 L 236.57 216.317 L 236.57 216.317 Q 236.57 216.101 236.741 215.921 L 236.741 215.921 L 236.741 215.921 Q 236.912 215.741 237.128 215.741 L 237.128 215.741 L 237.128 215.741 Q 237.344 215.741 237.524 215.921 L 237.524 215.921 L 237.524 215.921 Q 238.226 216.677 239.117 217.073 L 239.117 217.073 L 239.117 217.073 Q 240.008 217.469 241.034 217.469 L 241.034 217.469 L 241.034 217.469 Q 241.898 217.469 242.573 217.199 L 242.573 217.199 L 242.573 217.199 Q 243.248 216.929 243.644 216.425 L 243.644 216.425 L 243.644 216.425 Q 244.04 215.921 244.04 215.255 L 244.04 215.255 L 244.04 215.255 Q 244.04 214.427 243.59 213.914 L 243.59 213.914 L 243.59 213.914 Q 243.14 213.401 242.402 213.068 L 242.402 213.068 L 242.402 213.068 Q 241.664 212.735 240.764 212.465 L 240.764 212.465 L 240.764 212.465 Q 240.026 212.249 239.36 211.97 L 239.36 211.97 L 239.36 211.97 Q 238.694 211.691 238.172 211.286 L 238.172 211.286 L 238.172 211.286 Q 237.65 210.881 237.362 210.287 L 237.362 210.287 L 237.362 210.287 Q 237.074 209.693 237.074 208.847 L 237.074 208.847 L 237.074 208.847 Q 237.074 207.893 237.578 207.155 L 237.578 207.155 L 237.578 207.155 Q 238.082 206.417 239.009 205.994 L 239.009 205.994 L 239.009 205.994 Q 239.936 205.571 241.16 205.571 L 241.16 205.571 L 241.16 205.571 Q 242.222 205.571 243.203 205.931 L 243.203 205.931 L 243.203 205.931 Q 244.184 206.291 244.76 206.993 L 244.76 206.993 L 244.76 206.993 Q 245.03 207.281 245.03 207.515 L 245.03 207.515 L 245.03 207.515 Q 245.03 207.695 244.85 207.875 L 244.85 207.875 L 244.85 207.875 Q 244.67 208.055 244.454 208.055 L 244.454 208.055 L 244.454 208.055 Q 244.274 208.055 244.148 207.929 L 244.148 207.929 L 244.148 207.929 Q 243.842 207.551 243.374 207.254 L 243.374 207.254 L 243.374 207.254 Q 242.906 206.957 242.339 206.795 L 242.339 206.795 L 242.339 206.795 Q 241.772 206.633 241.16 206.633 L 241.16 206.633 L 241.16 206.633 Q 240.314 206.633 239.639 206.894 L 239.639 206.894 L 239.639 206.894 Q 238.964 207.155 238.577 207.641 L 238.577 207.641 L 238.577 207.641 Q 238.19 208.127 238.19 208.811 L 238.19 208.811 L 238.19 208.811 Q 238.19 209.567 238.622 210.053 L 238.622 210.053 L 238.622 210.053 Q 239.054 210.539 239.756 210.854 L 239.756 210.854 L 239.756 210.854 Q 240.458 211.169 241.25 211.439 L 241.25 211.439 L 241.25 211.439 Q 242.024 211.655 242.735 211.934 L 242.735 211.934 L 242.735 211.934 Q 243.446 212.213 243.995 212.627 L 243.995 212.627 L 243.995 212.627 Q 244.544 213.041 244.859 213.671 L 244.859 213.671 L 244.859 213.671 Q 245.174 214.301 245.174 215.255 L 245.174 215.255 L 245.174 215.255 Q 245.174 216.173 244.652 216.911 L 244.652 216.911 L 244.652 216.911 Q 244.13 217.649 243.221 218.081 L 243.221 218.081 L 243.221 218.081 Q 242.312 218.513 241.088 218.531 Z  M 254.93 209.153 L 254.93 209.153 L 254.93 209.153 Q 255.164 209.153 255.317 209.315 L 255.317 209.315 L 255.317 209.315 Q 255.47 209.477 255.47 209.711 L 255.47 209.711 L 255.47 217.811 L 255.47 217.811 Q 255.47 218.027 255.308 218.189 L 255.308 218.189 L 255.308 218.189 Q 255.146 218.351 254.93 218.351 L 254.93 218.351 L 254.93 218.351 Q 254.678 218.351 254.534 218.189 L 254.534 218.189 L 254.534 218.189 Q 254.39 218.027 254.39 217.811 L 254.39 217.811 L 254.39 215.669 L 254.696 215.525 L 254.696 215.525 Q 254.696 216.029 254.417 216.551 L 254.417 216.551 L 254.417 216.551 Q 254.138 217.073 253.652 217.523 L 253.652 217.523 L 253.652 217.523 Q 253.166 217.973 252.509 218.252 L 252.509 218.252 L 252.509 218.252 Q 251.852 218.531 251.078 218.531 L 251.078 218.531 L 251.078 218.531 Q 249.872 218.531 248.909 217.901 L 248.909 217.901 L 248.909 217.901 Q 247.946 217.271 247.397 216.173 L 247.397 216.173 L 247.397 216.173 Q 246.848 215.075 246.848 213.707 L 246.848 213.707 L 246.848 213.707 Q 246.848 212.303 247.406 211.232 L 247.406 211.232 L 247.406 211.232 Q 247.964 210.161 248.918 209.549 L 248.918 209.549 L 248.918 209.549 Q 249.872 208.937 251.06 208.937 L 251.06 208.937 L 251.06 208.937 Q 251.834 208.937 252.509 209.207 L 252.509 209.207 L 252.509 209.207 Q 253.184 209.477 253.688 209.945 L 253.688 209.945 L 253.688 209.945 Q 254.192 210.413 254.48 211.016 L 254.48 211.016 L 254.48 211.016 Q 254.768 211.619 254.768 212.267 L 254.768 212.267 L 254.39 211.997 L 254.39 209.711 L 254.39 209.711 Q 254.39 209.477 254.534 209.315 L 254.534 209.315 L 254.534 209.315 Q 254.678 209.153 254.93 209.153 Z  M 251.186 217.523 L 251.186 217.523 L 251.186 217.523 Q 252.14 217.523 252.878 217.028 L 252.878 217.028 L 252.878 217.028 Q 253.616 216.533 254.039 215.66 L 254.039 215.66 L 254.039 215.66 Q 254.462 214.787 254.462 213.707 L 254.462 213.707 L 254.462 213.707 Q 254.462 212.645 254.039 211.799 L 254.039 211.799 L 254.039 211.799 Q 253.616 210.953 252.878 210.449 L 252.878 210.449 L 252.878 210.449 Q 252.14 209.945 251.186 209.945 L 251.186 209.945 L 251.186 209.945 Q 250.25 209.945 249.503 210.431 L 249.503 210.431 L 249.503 210.431 Q 248.756 210.917 248.333 211.763 L 248.333 211.763 L 248.333 211.763 Q 247.91 212.609 247.91 213.707 L 247.91 213.707 L 247.91 213.707 Q 247.91 214.787 248.324 215.66 L 248.324 215.66 L 248.324 215.66 Q 248.738 216.533 249.485 217.028 L 249.485 217.028 L 249.485 217.028 Q 250.232 217.523 251.186 217.523 Z  M 262.634 208.937 L 262.634 208.937 L 262.634 208.937 Q 263.822 208.937 264.533 209.414 L 264.533 209.414 L 264.533 209.414 Q 265.244 209.891 265.559 210.71 L 265.559 210.71 L 265.559 210.71 Q 265.874 211.529 265.874 212.519 L 265.874 212.519 L 265.874 217.811 L 265.874 217.811 Q 265.874 218.027 265.712 218.189 L 265.712 218.189 L 265.712 218.189 Q 265.55 218.351 265.334 218.351 L 265.334 218.351 L 265.334 218.351 Q 265.082 218.351 264.938 218.189 L 264.938 218.189 L 264.938 218.189 Q 264.794 218.027 264.794 217.811 L 264.794 217.811 L 264.794 212.573 L 264.794 212.573 Q 264.794 211.853 264.56 211.259 L 264.56 211.259 L 264.56 211.259 Q 264.326 210.665 263.795 210.305 L 263.795 210.305 L 263.795 210.305 Q 263.264 209.945 262.4 209.945 L 262.4 209.945 L 262.4 209.945 Q 261.626 209.945 260.933 210.305 L 260.933 210.305 L 260.933 210.305 Q 260.24 210.665 259.808 211.259 L 259.808 211.259 L 259.808 211.259 Q 259.376 211.853 259.376 212.573 L 259.376 212.573 L 259.376 217.811 L 259.376 217.811 Q 259.376 218.027 259.214 218.189 L 259.214 218.189 L 259.214 218.189 Q 259.052 218.351 258.836 218.351 L 258.836 218.351 L 258.836 218.351 Q 258.584 218.351 258.44 218.189 L 258.44 218.189 L 258.44 218.189 Q 258.296 218.027 258.296 217.811 L 258.296 217.811 L 258.296 209.747 L 258.296 209.747 Q 258.296 209.531 258.449 209.369 L 258.449 209.369 L 258.449 209.369 Q 258.602 209.207 258.836 209.207 L 258.836 209.207 L 258.836 209.207 Q 259.07 209.207 259.223 209.369 L 259.223 209.369 L 259.223 209.369 Q 259.376 209.531 259.376 209.747 L 259.376 209.747 L 259.376 211.259 L 258.962 211.907 L 258.962 211.907 Q 258.998 211.331 259.331 210.8 L 259.331 210.8 L 259.331 210.8 Q 259.664 210.269 260.186 209.846 L 260.186 209.846 L 260.186 209.846 Q 260.708 209.423 261.347 209.18 L 261.347 209.18 L 261.347 209.18 Q 261.986 208.937 262.634 208.937 Z " fill="rgb(255,145,77)"/></g></g></g></g></svg>